<?xml version="1.0" encoding="UTF-8"?>
<!DOCTYPE svg PUBLIC "-//W3C//DTD SVG 1.1//EN" "http://www.w3.org/Graphics/SVG/1.1/DTD/svg11.dtd">
<!-- Creator: CorelDRAW X7 -->
<svg xmlns="http://www.w3.org/2000/svg" xml:space="preserve" width="26.4674mm" height="26.4148mm" version="1.1" style="shape-rendering:geometricPrecision; text-rendering:geometricPrecision; image-rendering:optimizeQuality; fill-rule:evenodd; clip-rule:evenodd"
viewBox="0 0 787 785"
 xmlns:xlink="http://www.w3.org/1999/xlink">
 <defs>
  <style type="text/css">
   <![CDATA[
    .fil0 {fill:#AE780C}
   ]]>
  </style>
 </defs>
 <g id="Layer_x0020_1">
  <metadata id="CorelCorpID_0Corel-Layer"/>
  <path class="fil0" d="M710 760c16,-15 26,-21 40,-37 19,-21 3,-43 11,-68 14,1 13,-1 16,25 -1,-20 21,-74 2,-83 -10,-4 -15,1 -26,-3 -11,-3 1,6 -7,-4 1,-55 -29,-74 -80,-77 -5,-24 -1,-36 -16,-54 -33,-42 -115,-38 -149,3 -63,-6 -90,-10 -127,26 -120,-9 -95,41 -149,106 -26,2 -64,-2 -86,4 -17,55 24,122 50,144 47,41 78,43 154,43 65,0 131,0 197,0 80,0 104,7 170,-25zm-164 -673c-6,0 -17,0 -23,0 -24,2 -25,22 4,38 -1,16 -8,33 -1,45 17,14 28,-10 43,-11 15,-1 27,26 44,11 7,-12 0,-29 -1,-46 8,-4 30,-15 19,-30 -8,-11 -21,-6 -37,-8l-15 -34 -19 -1 -14 36zm-66 -87c-100,17 -176,134 -125,246 60,128 238,138 312,16 6,-10 34,-62 13,-71 -13,-6 -21,9 -27,16 -9,9 -17,14 -30,20 -26,13 -56,17 -86,8 -79,-22 -116,-113 -68,-186 10,-15 17,-17 25,-27 10,-13 0,-24 -14,-22zm-404 785l122 -1c-14,-8 -36,-29 -45,-41 -28,-37 -50,-87 -44,-139 6,-44 54,-36 100,-36 33,-38 36,-85 89,-102 2,-40 3,-159 -2,-193 -10,-4 -134,-5 -214,-4 0,-21 -1,-37 -4,-47 9,-10 15,-28 25,-48 19,-40 39,-67 7,-62 -11,14 -11,12 -21,33 -16,35 -33,64 -33,84 1,0 1,0 1,1 -1,12 -2,19 -2,39 -15,0 -26,0 -33,1 -26,1 -22,11 -22,36l0 334c0,77 -11,144 76,145zm-21 -488c0,24 -1,46 -1,68l-26 0 0 -68 27 0zm27 68l0 -3c0,-24 0,-46 0,-65l189 0 0 68 -189 0zm461 230l174 0c10,-59 -40,-54 -85,-54 -52,0 -93,-6 -89,54zm-92 0l64 0c8,-101 65,-75 122,-82 1,-32 -8,-50 -38,-53 -33,-3 -62,-2 -75,18 -12,19 -25,40 -37,58 -11,17 -29,42 -36,59zm-106 0l71 0 70 -107c-51,-6 -75,-6 -96,28 -13,21 -37,56 -45,79zm-86 0l53 0c8,-17 43,-67 46,-81 -32,-1 -50,-1 -65,22 -8,12 -30,47 -34,59z"/>
 </g>
</svg>
