<?xml version="1.0" encoding="UTF-8"?>
<!DOCTYPE svg PUBLIC "-//W3C//DTD SVG 1.1//EN" "http://www.w3.org/Graphics/SVG/1.1/DTD/svg11.dtd">
<!-- Creator: CorelDRAW X7 -->
<svg xmlns="http://www.w3.org/2000/svg" xml:space="preserve" width="26.467mm" height="26.3714mm" version="1.1" style="shape-rendering:geometricPrecision; text-rendering:geometricPrecision; image-rendering:optimizeQuality; fill-rule:evenodd; clip-rule:evenodd"
viewBox="0 0 787 784"
 xmlns:xlink="http://www.w3.org/1999/xlink">
 <defs>
  <style type="text/css">
   <![CDATA[
    .fil0 {fill:#86BC10}
   ]]>
  </style>
 </defs>
 <g id="Layer_x0020_1">
  <metadata id="CorelCorpID_0Corel-Layer"/>
  <g id="_401795984">
   <path class="fil0" d="M24 644c-29,9 -31,45 -9,59 11,7 28,3 39,10 5,4 14,22 20,29 42,47 78,41 154,41 64,0 129,0 194,0 75,0 112,6 152,-42 6,-7 13,-23 19,-28 10,-8 26,-4 36,-14 19,-19 7,-54 -24,-56 -59,-4 -134,-1 -195,-1 -45,0 -370,-2 -386,2z"/>
   <path class="fil0" d="M669 704c13,4 72,4 84,-1l23 -332 -295 -1 8 116c7,6 12,9 18,13 5,5 9,14 15,16 16,8 47,-1 79,43 25,34 -2,40 30,52 14,5 26,16 34,29 10,15 16,49 4,65z"/>
   <polygon class="fil0" points="478,333 779,333 787,220 469,220 "/>
   <path class="fil0" d="M256 491c4,22 41,87 44,114l279 0c-6,-59 -61,-47 -75,-54 -11,-5 -18,-22 -32,-31 -20,-11 -30,-3 -43,-23 -12,-17 -14,-22 -31,-32 -13,-9 -31,-15 -51,-14 -56,2 -56,40 -91,40z"/>
   <path class="fil0" d="M257 169c-18,6 -36,25 -81,16 -69,-14 -106,-95 -64,-158 8,-13 16,-18 24,-27 -118,-3 -172,132 -108,212 64,80 192,65 229,-43z"/>
   <path class="fil0" d="M647 183l75 0c0,-19 2,-55 -1,-72 -5,-29 -43,-53 -70,-75 -14,-13 -28,-27 -46,-27 -21,0 -36,16 -37,36 -1,24 15,33 28,43 14,12 26,22 40,33 17,13 11,21 11,62z"/>
   <path class="fil0" d="M207 605l55 0 -72 -174c-8,-20 -14,-42 -44,-37 -23,3 -36,27 -25,50 13,29 80,144 86,161z"/>
   <path class="fil0" d="M753 703c-12,5 -71,5 -84,1 -7,19 -22,32 -44,39 -15,5 -15,17 -38,40 18,1 105,2 120,-1 43,-10 44,-49 46,-79z"/>
   <path class="fil0" d="M66 605l98 0c-4,-12 -22,-43 -28,-53 -20,5 -30,-1 -48,12 -12,9 -21,21 -22,41z"/>
  </g>
 </g>
</svg>
