<?xml version="1.0" encoding="UTF-8"?>
<!DOCTYPE svg PUBLIC "-//W3C//DTD SVG 1.1//EN" "http://www.w3.org/Graphics/SVG/1.1/DTD/svg11.dtd">
<!-- Creator: CorelDRAW X7 -->
<svg xmlns="http://www.w3.org/2000/svg" xml:space="preserve" width="26.4674mm" height="26.3985mm" version="1.1" style="shape-rendering:geometricPrecision; text-rendering:geometricPrecision; image-rendering:optimizeQuality; fill-rule:evenodd; clip-rule:evenodd"
viewBox="0 0 787 785"
 xmlns:xlink="http://www.w3.org/1999/xlink">
 <defs>
  <style type="text/css">
   <![CDATA[
    .fil0 {fill:#AE780C}
   ]]>
  </style>
 </defs>
 <g id="Layer_x0020_1">
  <metadata id="CorelCorpID_0Corel-Layer"/>
  <g id="_401201680">
   <path class="fil0" d="M364 575l1 -56 -98 -1c-51,0 -42,10 -42,-105 0,-17 12,-29 24,-17 8,8 4,78 4,94 53,0 105,1 158,0 28,0 42,7 56,24 16,20 11,38 3,61 151,0 148,13 148,-62 0,-23 0,-46 0,-70 0,-39 -2,-75 -35,-104 -12,-11 -24,-19 -44,-26 -10,-3 -19,-4 -30,-5 -6,0 -10,0 -14,-4 -10,-10 8,-10 -32,-10 -3,24 -28,49 -55,55 -1,14 -1,28 -1,42 1,13 2,29 -14,29 -20,0 -13,-38 -14,-71 -25,-5 -52,-30 -56,-55 -38,0 -22,-1 -32,10 -7,7 -23,2 -47,11 -20,7 -36,18 -46,30 -32,37 -29,63 -29,121 0,25 0,50 0,75 0,29 15,34 42,34 51,-1 102,0 153,0z"/>
   <path class="fil0" d="M239 631l0 -28c-20,0 -49,2 -66,-6 -42,-20 -32,-70 -32,-114 0,-60 -8,-122 49,-169 21,-18 48,-30 78,-33 16,-2 19,-2 27,8 1,-13 0,-26 -5,-37 -12,-5 -9,5 -20,-11 -19,-26 -41,-31 -75,-31 -5,20 -20,35 -40,40 0,17 8,58 -14,58 -21,0 -14,-40 -14,-58 -20,-6 -35,-19 -40,-40 -102,0 -86,71 -86,153 0,51 -7,43 75,43 8,0 23,-1 29,2 7,2 11,11 6,19 -5,11 -39,7 -54,7l0 197c11,0 126,-2 133,1 5,3 6,9 9,13l26 -3 4 -6c3,-4 4,-4 10,-5zm-182 -281c0,-13 1,-30 0,-42 -1,-12 -15,-19 -24,-10 -7,7 -7,69 0,76 7,7 69,7 76,0 9,-9 2,-22 -10,-24 -11,-1 -30,0 -42,0z"/>
   <path class="fil0" d="M492 289c6,-10 12,-9 26,-8 44,4 87,30 108,68 9,15 16,33 19,54 2,17 1,116 1,140 -1,58 -47,60 -84,60l0 42c47,0 19,-1 34,-12 7,-5 120,-2 134,-2l0 -197c-14,0 -48,4 -54,-5 -5,-8 -2,-18 5,-21 7,-4 76,-1 87,-2 24,0 18,-21 18,-42 0,-83 16,-154 -87,-154 -5,21 -19,34 -39,40 0,17 7,58 -14,58 -22,0 -14,-41 -14,-58 -20,-5 -35,-20 -40,-40 -54,0 -59,13 -78,36 -7,9 -9,3 -15,5 -5,2 -5,8 -6,16 -1,8 -2,14 -1,22zm238 61c-12,0 -31,-1 -42,0 -13,2 -19,15 -10,24 7,7 68,7 75,0 7,-7 8,-69 1,-76 -9,-9 -23,-3 -24,10 -1,12 0,29 0,42z"/>
   <path class="fil0" d="M239 631c16,2 14,12 14,28l0 126 281 0 0 -182 -295 0 0 28z"/>
   <path class="fil0" d="M323 163c0,100 141,100 141,0l0 -23 -141 0 0 23z"/>
   <path class="fil0" d="M323 112l140 0c-1,-92 -138,-92 -140,0z"/>
   <path class="fil0" d="M590 93c0,82 112,82 112,0l0 -9 -113 0 1 9z"/>
   <path class="fil0" d="M590 56l112 0c-3,-74 -109,-75 -112,0z"/>
   <path class="fil0" d="M435 257c-40,13 -43,13 -84,0 0,20 -3,32 7,46 19,26 53,25 70,1 11,-15 7,-25 7,-47z"/>
   <path class="fil0" d="M393 575l21 0c48,0 46,-57 4,-57l-25 0 0 57z"/>
   <path class="fil0" d="M673 177c-18,7 -37,7 -55,0 -3,25 3,47 28,47 24,0 30,-22 27,-47z"/>
   <path class="fil0" d="M85 93c0,82 112,82 112,0l0 -9 -112 0 0 9z"/>
   <path class="fil0" d="M85 56l112 0c-4,-75 -108,-75 -112,0z"/>
   <path class="fil0" d="M169 178c-25,5 -30,6 -56,0 0,14 -3,46 28,46 31,0 28,-32 28,-46z"/>
  </g>
 </g>
</svg>
