<?xml version="1.0" encoding="UTF-8"?>
<!DOCTYPE svg PUBLIC "-//W3C//DTD SVG 1.1//EN" "http://www.w3.org/Graphics/SVG/1.1/DTD/svg11.dtd">
<!-- Creator: CorelDRAW X7 -->
<svg xmlns="http://www.w3.org/2000/svg" xml:space="preserve" width="30.5215mm" height="30.7223mm" version="1.1" style="shape-rendering:geometricPrecision; text-rendering:geometricPrecision; image-rendering:optimizeQuality; fill-rule:evenodd; clip-rule:evenodd"
viewBox="0 0 1001 1007"
 xmlns:xlink="http://www.w3.org/1999/xlink">
 <defs>
  <style type="text/css">
   <![CDATA[
    .fil0 {fill:#86BC10}
   ]]>
  </style>
 </defs>
 <g id="Layer_x0020_1">
  <metadata id="CorelCorpID_0Corel-Layer"/>
  <path class="fil0" d="M274 441l-6 16c-49,0 -42,11 -60,50 -12,25 -24,49 -36,73 -15,31 -66,123 -70,150l307 0c60,-1 23,14 60,17 108,8 54,-18 113,-17l312 0c-4,-22 -85,-180 -106,-223 -19,-39 -11,-50 -60,-50l-7 -15c-88,-3 -131,-32 -179,-28 -26,2 -30,11 -44,24 -31,-27 -44,-33 -105,-16 -43,12 -71,18 -119,19zm280 -74c-75,23 -110,-34 -69,-94 -38,10 -62,58 -35,96 23,32 83,28 104,-2zm-411 495l186 0c30,0 28,5 43,21l126 124 126 -124c29,-30 27,-21 104,-21 42,0 83,0 125,0l0 -112 -46 1 -1 63 -113 0c8,-17 18,-38 17,-63l-31 -1c-7,10 -6,12 -13,22 -23,34 -36,43 -67,43 -24,-1 -42,-1 -62,-13 -25,-14 -20,-25 -39,-35 -8,4 -5,3 -10,8 -5,4 -6,7 -10,11 -5,6 -11,11 -19,16 -20,12 -38,12 -62,13 -53,0 -55,-35 -80,-64l-31 0c-1,25 9,46 17,62l-113 1 0 -63 -46 -1 -1 112zm277 -2c5,12 -1,1 7,12l30 31c14,13 24,28 41,37l69 -65c9,-11 4,-3 9,-15 -22,-5 -34,-11 -48,-24 -18,-17 -16,-23 -30,-41 -14,18 -12,24 -30,41 -14,13 -26,19 -48,24zm-276 -710c-4,29 -1,141 -1,184 0,31 -4,29 -20,44 -22,21 -41,41 -62,63 -19,18 -47,43 -61,62 13,21 43,47 60,63 21,22 42,41 62,63 12,-10 19,-31 25,-45 -1,-1 -2,-3 -2,-2 0,0 -2,-2 -2,-2l-76 -77c9,-15 62,-68 77,-77 7,31 25,58 47,68 25,-53 -1,-21 -1,-104 0,-20 9,-23 20,-34 40,-39 56,-47 115,-29 -9,-31 -16,-51 3,-83 28,-49 45,-47 77,-47 68,0 74,33 93,59 13,-19 10,-26 32,-43 25,-19 61,-16 93,-16 17,0 43,33 52,49 20,38 4,51 2,82 23,-14 55,-13 80,1 49,27 49,45 49,81 0,50 -26,32 -1,84 38,-17 40,-59 53,-72 18,27 61,53 76,81 -13,16 -67,72 -82,81 -3,-10 -4,-15 -8,-24l-16 -22c4,14 37,84 45,92l128 -127 -123 -125c-11,-11 -23,-17 -25,-36 -1,-18 0,-46 0,-65 0,-36 4,-94 -1,-127l-185 0c-25,-1 -27,-11 -41,-25 -42,-43 -83,-83 -124,-125 -51,30 -127,147 -165,150l-193 0zm46 158c49,-18 52,-28 109,-8 -19,-41 -12,-66 5,-102l-114 -1 0 111zm514 -9c49,-15 59,-9 101,6l1 -108 -109 0c21,38 18,60 7,102zm-286 -151c16,11 42,11 65,43 8,11 7,15 15,25 7,-9 6,-13 13,-22 23,-35 56,-37 70,-46l-77 -81c-19,8 -30,25 -44,39 -15,15 -29,27 -42,42zm-285 563c151,9 215,-44 279,-33 60,11 38,48 70,48l40 0c22,-13 11,-36 59,-47 65,-14 130,41 282,32 -1,-12 -69,-153 -84,-183l-22 -46c-8,-15 1,-8 -13,-13 -8,13 11,43 18,56 11,21 18,37 27,58 15,32 44,83 53,115 -155,0 -243,-70 -306,-12 -24,22 1,26 -50,26 -20,0 -27,-74 -150,-41 -64,18 -111,27 -182,27 8,-32 38,-83 53,-115l45 -96c9,-25 4,-11 0,-18 -12,5 -11,7 -20,27 -17,40 -98,197 -99,215zm249 -272c-548,162 365,-108 0,0z"/>
 </g>
</svg>
