<?xml version="1.0" encoding="UTF-8"?>
<!DOCTYPE svg PUBLIC "-//W3C//DTD SVG 1.1//EN" "http://www.w3.org/Graphics/SVG/1.1/DTD/svg11.dtd">
<!-- Creator: CorelDRAW X7 -->
<svg xmlns="http://www.w3.org/2000/svg" xml:space="preserve" width="26.1175mm" height="29.8323mm" version="1.1" style="shape-rendering:geometricPrecision; text-rendering:geometricPrecision; image-rendering:optimizeQuality; fill-rule:evenodd; clip-rule:evenodd"
viewBox="0 0 837 956"
 xmlns:xlink="http://www.w3.org/1999/xlink">
 <defs>
  <style type="text/css">
   <![CDATA[
    .fil0 {fill:#AE780C}
   ]]>
  </style>
 </defs>
 <g id="Layer_x0020_1">
  <metadata id="CorelCorpID_0Corel-Layer"/>
  <path class="fil0" d="M254 818c-1,16 -1,33 0,49 0,25 2,25 -14,38 -15,12 -51,39 -60,51l56 0c8,-12 -3,-4 18,-21 34,-29 36,-24 35,-47 0,-10 -3,-28 5,-35 8,-7 25,-5 38,-5 25,0 23,3 37,-9 52,-45 47,-45 99,0 14,12 11,9 35,9 46,0 45,-2 45,38 0,25 -2,17 34,48 4,3 9,6 12,10 5,5 4,6 8,12l56 0c-10,-12 -45,-38 -59,-50 -17,-13 -15,-12 -15,-37 0,-16 1,-35 -1,-51 -19,0 -39,0 -59,0 -30,0 -28,3 -45,-11 -13,-11 -48,-43 -60,-49 -13,6 -47,37 -60,48 -16,13 -14,13 -44,12 -20,0 -41,0 -61,0zm-221 -153l0 91c-1,12 -5,12 -17,15l0 35c5,10 17,1 17,26 0,24 -2,112 2,124l100 0c16,-19 1,-6 31,-32 59,-49 52,-34 52,-73 0,-13 -3,-50 5,-57 10,-10 76,-3 100,-5 13,-1 46,-33 56,-41 42,-35 37,-36 79,-1 59,49 40,42 90,42 17,0 58,-3 67,5 8,8 4,42 4,55 0,41 -8,25 51,74 37,31 18,16 33,33l100 0c3,-11 1,-100 1,-122 0,-28 13,-17 18,-28l0 -35c-23,-6 -18,-9 -18,-45 0,-20 0,-41 0,-61l0 -25 -770 0 -1 25zm117 -205c-6,3 -6,83 -3,92l73 1 2 -42c4,-15 26,-14 32,-3 3,6 2,35 2,44l118 0c14,0 19,4 21,15 -3,16 -14,14 -35,14 -29,0 -149,-1 -242,0 -3,-37 -46,-148 -45,-148 31,-19 177,-123 178,-123 4,1 8,1 14,0 8,-2 25,-16 28,-22 6,-13 -7,-24 -21,-20 -23,6 -34,26 -28,37 1,1 -183,122 -182,123 0,0 16,128 19,153 -43,0 -76,0 -81,1l0 28c14,3 819,3 837,0l0 -28c-18,-2 -311,-1 -360,-1 -19,0 -31,3 -35,-14 2,-10 6,-14 19,-15l121 0c0,-10 -2,-36 2,-43 6,-13 27,-13 31,2l1 41 74 1c4,-12 3,-85 -2,-91 1,-27 -28,-56 -47,-63 -6,-6 -16,-9 -25,-11 -4,5 -8,19 -11,25 -56,103 -213,131 -314,63 -25,-17 -59,-51 -68,-88 -34,6 -74,40 -73,72zm309 -138l0 -12c-37,5 -43,5 -81,0l0 12c0,39 -4,37 -52,44 18,77 167,77 185,0 -48,-7 -52,-5 -52,-44zm-148 -210c3,5 -1,4 23,3l192 0c11,-53 -27,-100 -77,-110 -36,-15 -87,6 -104,20 -24,19 -39,51 -34,87zm136 169c30,-5 55,-25 68,-44 16,-26 12,-61 12,-92l-27 0 -189 0c0,46 -7,74 24,107 18,19 66,44 112,29zm-190 99c13,55 82,104 162,104 79,0 148,-49 161,-103l-34 -8c-25,88 -177,111 -238,32 -5,-8 -12,-25 -18,-31l-33 6zm69 497c-5,24 7,34 -12,49 -8,8 -29,23 -34,30l277 0c-5,-7 -25,-23 -34,-30 -19,-15 -6,-25 -11,-49 -11,0 -22,1 -32,1 -33,-1 -31,-23 -61,-37 -29,14 -30,36 -59,37 -11,0 -23,-1 -34,-1z"/>
 </g>
</svg>
