<?xml version="1.0" encoding="UTF-8"?>
<!DOCTYPE svg PUBLIC "-//W3C//DTD SVG 1.1//EN" "http://www.w3.org/Graphics/SVG/1.1/DTD/svg11.dtd">
<!-- Creator: CorelDRAW X7 -->
<svg xmlns="http://www.w3.org/2000/svg" xml:space="preserve" width="26.4674mm" height="20.8549mm" version="1.1" style="shape-rendering:geometricPrecision; text-rendering:geometricPrecision; image-rendering:optimizeQuality; fill-rule:evenodd; clip-rule:evenodd"
viewBox="0 0 864 680"
 xmlns:xlink="http://www.w3.org/1999/xlink">
 <defs>
  <style type="text/css">
   <![CDATA[
    .fil0 {fill:#86BC10}
   ]]>
  </style>
 </defs>
 <g id="Layer_x0020_1">
  <metadata id="CorelCorpID_0Corel-Layer"/>
  <path class="fil0" d="M201 395l0 -39c-7,4 -8,10 -18,10 -10,0 -11,-6 -18,-10l0 39c7,-4 8,-10 18,-10 10,0 11,6 18,10zm517 -115c-1,4 -35,50 -40,57 -18,22 -46,60 -68,78 -9,7 -22,11 -35,14 -9,2 -41,0 -43,5 -7,10 28,13 31,15 -10,5 -21,11 -32,17 -7,4 -28,12 -30,18 11,11 38,-9 49,-12l-21 15c-3,2 -7,4 -12,6 -5,1 -10,1 -13,4 -2,12 19,6 25,4 4,-2 8,-4 12,-6 3,-2 8,-5 11,-6 -9,12 -31,19 -30,23 7,12 34,-8 41,-10l-19 16c-14,13 12,5 16,4 19,-6 32,-17 45,-30 9,-9 18,-16 26,-24 36,-36 64,-64 95,-105l20 -29c6,10 4,44 2,56 -4,18 -10,33 -17,47 -9,19 -25,41 -39,55 -4,5 -11,13 -16,16 1,-10 -3,-12 -11,-16 -8,-3 -21,-7 -30,-10 -5,-1 -6,0 -9,3 -6,4 -11,8 -15,12 18,8 35,18 59,17 -2,5 -36,31 -41,34 -5,4 -62,42 -69,43 -6,1 -65,-39 -70,-43 -43,-31 -85,-71 -107,-120 -5,-12 -16,-44 -14,-60l73 87c10,11 42,40 54,44 -5,-35 10,-42 40,-48 -16,-7 -17,-20 -5,-26 10,-5 34,-3 41,-6 -4,-5 -17,-9 -25,-10 -16,0 -29,21 -52,19 -9,-1 -19,-8 -23,-13 18,6 36,5 52,-3 17,-9 18,-17 45,-15 9,1 19,3 29,1 8,-2 17,-6 13,-16 -5,-12 -37,-9 -52,-9 -20,0 -40,0 -59,-4 -18,-4 -29,-14 -39,-23 -13,-13 -30,-36 -41,-53 -2,-3 -11,-15 -12,-18 7,-8 24,-17 36,-21 44,-14 85,7 109,42 2,3 4,7 7,9 6,-7 8,-15 28,-33 9,-8 24,-16 40,-20 26,-6 52,0 72,14 8,5 12,10 18,14zm-83 195c2,-4 13,-15 16,-19 4,1 17,6 21,7 12,7 15,27 -16,19 -5,-1 -18,-5 -21,-7zm-87 57c9,-1 21,-4 28,-8 5,-3 4,-2 9,0 8,4 28,14 30,21 3,10 -16,13 -35,6 -6,-3 -29,-15 -32,-19zm37 -14c22,-12 11,-18 30,-11 9,3 29,10 32,17 4,7 -2,12 -8,14 -7,1 -15,-2 -21,-4 -7,-3 -28,-12 -33,-16zm204 -443c12,6 46,81 54,98 9,18 20,33 20,56l0 379c0,86 9,71 -79,71l-455 0c-87,0 -72,9 -72,-79l0 -302 -17 17c-10,10 -6,18 -6,47 0,17 0,34 0,51 0,74 -41,19 -51,11 -5,4 -52,62 -51,-7l0 -79c0,-24 0,-16 -31,-48l-78 -77c-35,-35 -32,-28 19,-79l114 -114c32,-31 26,-27 76,22l73 74c6,-10 10,-19 13,-24 14,-29 28,-19 95,-19 58,0 368,-2 376,2zm-532 176c0,-9 0,-17 0,-26l-19 -19 -32 31 31 33 20 -19zm12 -62c4,-8 8,-18 13,-27l-20 19 7 8zm-54 104l-32 -32 -32 31 31 33 33 -32zm-55 -55l-32 -32 -32 31 31 33 33 -32zm55 -55l-32 -32 -32 31 31 33 33 -32zm-110 -2l-34 -32 -31 32 31 33 34 -33zm21 -87l-32 33 32 32 33 -32 -33 -33zm113 1l-33 32 33 33 32 -33 -32 -32zm-24 -24l-32 -32 -32 32 31 32 33 -32zm108 162l-18 17 0 206c0,36 -4,69 14,98 13,20 34,40 67,44 27,4 407,2 445,2l0 -367 -508 0z"/>
 </g>
</svg>
