<?xml version="1.0" encoding="UTF-8"?>
<!DOCTYPE svg PUBLIC "-//W3C//DTD SVG 1.1//EN" "http://www.w3.org/Graphics/SVG/1.1/DTD/svg11.dtd">
<!-- Creator: CorelDRAW X7 -->
<svg xmlns="http://www.w3.org/2000/svg" xml:space="preserve" width="26.4673mm" height="20.8549mm" version="1.1" style="shape-rendering:geometricPrecision; text-rendering:geometricPrecision; image-rendering:optimizeQuality; fill-rule:evenodd; clip-rule:evenodd"
viewBox="0 0 864 680"
 xmlns:xlink="http://www.w3.org/1999/xlink">
 <defs>
  <style type="text/css">
   <![CDATA[
    .fil0 {fill:#AE780C}
   ]]>
  </style>
 </defs>
 <g id="Layer_x0020_1">
  <metadata id="CorelCorpID_0Corel-Layer"/>
  <path class="fil0" d="M201 395l0 -39c-7,4 -8,10 -18,10 -10,0 -11,-6 -18,-10l0 39c7,-4 8,-10 18,-10 10,0 11,6 18,10zm396 27l-2 -26c-15,-1 -28,3 -42,2 -16,0 -28,-5 -40,0l0 4c-3,28 11,46 32,51 28,6 45,-11 52,-31zm141 38l-1 -17 -50 1c-4,40 40,45 51,16zm-46 -40l-1 14 9 4c2,0 9,1 11,1 8,0 14,-1 23,-2l2 -7 -1 -11c-13,-3 -33,-4 -43,1zm-100 -46c-1,-8 -2,-10 -5,-15 -14,-3 -49,-6 -62,1 -8,7 -7,16 -8,29 31,3 44,3 76,1l-1 -16zm-170 69c-11,-1 -17,1 -28,1 -15,0 -13,-4 -27,1 4,17 5,33 27,33 21,1 30,-14 28,-35zm-49 -17l0 12 44 -1 2 -6 -1 -11c-11,-5 -29,-4 -44,-2l-1 8zm133 55c-10,11 -18,15 -25,32 -6,14 -7,31 -7,48l0 39c123,1 330,0 357,0l0 -367 -508 0 -18 17 0 206c0,36 -4,69 14,98 13,20 34,40 67,44 6,1 29,2 62,2 1,-35 12,-83 -23,-103 -19,-11 -44,-11 -62,2 -21,15 -17,25 -22,56 -1,-4 -15,-29 -18,-38 -6,-15 -10,-31 -13,-47 -6,-35 0,-79 19,-98 6,-15 28,-31 43,-37 31,-14 57,-17 96,-13 67,6 37,15 71,-30 32,-43 101,-64 164,-41 51,19 87,64 97,124 6,33 5,68 0,101 -4,22 -16,73 -32,83 -2,-29 0,-41 -18,-57 -16,-14 -34,-14 -58,-10 -15,9 -25,13 -31,34 -4,15 -1,47 -2,65l-23 -7c0,-47 2,-76 -29,-100 -33,-26 -66,-19 -101,-3zm283 -406c12,6 46,81 54,98 9,18 20,33 20,56l0 379c0,86 9,71 -79,71l-455 0c-87,0 -72,9 -72,-79l0 -302 -17 17c-10,10 -6,18 -6,47 0,17 0,34 0,51 0,74 -41,19 -51,11 -5,4 -52,62 -51,-7l0 -79c0,-24 0,-16 -31,-48l-78 -77c-35,-35 -32,-28 19,-79l114 -114c32,-31 26,-27 76,22l73 74c6,-10 10,-19 13,-24 14,-29 28,-19 95,-19 58,0 368,-2 376,2zm-532 176c0,-9 0,-17 0,-26l-19 -19 -32 31 31 33 20 -19zm12 -62c4,-8 8,-18 13,-27l-20 19 7 8zm-54 104l-32 -32 -32 31 31 33 33 -32zm-55 -55l-32 -32 -32 31 31 33 33 -32zm55 -55l-32 -32 -32 31 31 33 33 -32zm-110 -2l-34 -32 -31 32 31 33 34 -33zm21 -87l-32 33 32 32 33 -32 -33 -33zm113 1l-33 32 33 33 32 -33 -32 -32zm-24 -24l-32 -32 -32 32 31 32 33 -32z"/>
 </g>
</svg>
