<?xml version="1.0" encoding="UTF-8"?>
<!DOCTYPE svg PUBLIC "-//W3C//DTD SVG 1.1//EN" "http://www.w3.org/Graphics/SVG/1.1/DTD/svg11.dtd">
<!-- Creator: CorelDRAW X7 -->
<svg xmlns="http://www.w3.org/2000/svg" xml:space="preserve" width="26.9821mm" height="27.8917mm" version="1.1" style="shape-rendering:geometricPrecision; text-rendering:geometricPrecision; image-rendering:optimizeQuality; fill-rule:evenodd; clip-rule:evenodd"
viewBox="0 0 903 934"
 xmlns:xlink="http://www.w3.org/1999/xlink">
 <defs>
  <style type="text/css">
   <![CDATA[
    .fil0 {fill:#86BC10}
   ]]>
  </style>
 </defs>
 <g id="Layer_x0020_1">
  <metadata id="CorelCorpID_0Corel-Layer"/>
  <path class="fil0" d="M159 767c-14,-11 -8,-80 -8,-95 1,-86 -30,-90 -76,-139 -15,-16 -46,-39 -27,-71 23,-38 85,-68 99,-119 8,-32 3,-67 3,-101 0,-46 6,-55 48,-62l-1 -41c-35,0 -60,14 -74,35 -17,25 -16,62 -14,96 1,42 4,62 -19,88 -43,49 -148,104 -48,202 18,18 39,32 55,55 42,57 -50,212 119,211 101,-1 83,-15 155,63 12,14 39,38 66,43 62,13 103,-57 134,-85 28,-24 41,-24 88,-22 77,3 130,-5 136,-84 4,-67 -17,-96 22,-139 5,-6 8,-9 14,-14 57,-52 115,-107 27,-187 -39,-36 -65,-49 -64,-103 0,-55 16,-138 -63,-156 -33,-7 -69,-1 -104,-2 -40,-1 -53,-19 -72,-39 -36,-40 -80,-93 -141,-60 -35,18 -60,57 -86,80 -16,13 -16,12 -31,17l-6 2 0 41c58,-8 73,-38 111,-76 40,-41 60,-48 111,12 30,34 53,65 122,65 83,0 119,-18 118,66 -1,77 -9,100 36,146 35,36 90,69 65,109 -23,37 -69,58 -90,98 -12,23 -13,51 -12,81 0,19 6,71 -7,82 -1,-2 0,-2 -3,-4l2 -13 -22 -6 0 -99 -456 0 0 118 -7 -3c-2,-17 -6,8 -6,-49 0,-32 -2,-145 1,-160 2,-6 -1,-3 4,-7 9,5 5,16 6,37 5,-8 8,-29 23,-55 21,-36 24,-23 15,-50 -21,-5 -67,-2 -94,-2 -18,-1 -29,1 -27,23 2,16 11,13 11,40 0,24 2,190 -1,197 -11,-4 -23,-11 -34,-14 0,22 3,29 6,46 -3,2 -2,1 -4,4zm262 -206c-11,3 -22,7 -31,11l0 28c2,16 10,5 36,-1 26,-6 56,-6 82,0 8,2 29,10 34,9 4,-4 2,-32 2,-36 -9,-4 -19,-9 -30,-10 -1,-14 -5,-20 -10,-29 8,-8 25,-8 39,-30 9,-13 15,-32 22,-48 4,-8 11,-14 9,-24 -1,-9 -9,-16 -15,-20 -34,-21 -65,0 -108,17 -21,8 -23,18 -34,36 -14,23 -12,24 1,48 22,37 6,14 3,49zm86 26l27 9 0 -17 -22 -8c-1,9 -3,10 -5,16zm-107 -5l0 14 28 -8 -7 -15c-4,0 -7,1 -12,2 -7,3 -7,3 -9,7zm49 -89l6 13c2,-2 13,-6 16,-8 3,-3 3,-7 12,-15l-16 -5c-9,10 -4,8 -18,15zm-13 26c3,-2 6,-5 8,-8 -3,-10 -6,-14 -6,-24 5,-4 9,-4 14,-8 6,-4 3,-7 11,-12 10,-1 10,3 18,4 9,1 17,-3 20,2 4,8 -13,19 -18,25 -10,12 -10,11 -25,18 -33,17 -14,44 17,22 13,-9 7,-8 26,-17 23,-11 30,-9 44,-45 5,-11 8,-21 14,-31 8,-14 5,-18 -8,-26 -25,-16 -47,0 -67,8 -40,14 -38,9 -54,35 -4,7 -15,19 -11,29 1,4 14,25 17,28zm92 -147c-12,-21 -38,-9 -31,-87l22 -3c-8,-9 -11,-1 -26,-11 -18,-12 -20,-34 -9,-51 6,-8 10,-7 18,-14l3 -3c-24,1 -41,13 -43,36 -4,33 27,43 29,45 2,21 1,42 -4,60 -13,18 -24,25 -40,37 -15,11 -29,23 -44,34 -20,15 -47,37 -64,54 -4,4 -15,17 -19,19 -4,7 -4,7 -9,13 -14,16 -28,44 -35,65 -3,10 -4,25 -9,32l-2 37 457 0c4,-72 -34,-123 -67,-160 -6,-7 -21,-20 -29,-27 -12,-10 -20,-17 -32,-26l-66 -50zm-323 -283l78 1c2,-17 -5,-39 -12,-51 -3,-7 -20,-34 -27,-39 -17,17 -41,57 -39,89zm20 655c-2,-53 0,-125 0,-182 0,-13 -3,-18 8,-21 4,16 4,184 1,206l-6 1 -3 -4zm-20 -283l78 0c2,-100 1,-217 0,-319 0,-9 -1,-15 6,-21 5,-4 12,-9 5,-19 -4,-5 -95,-5 -99,-1 -5,5 -4,14 2,19 8,6 8,4 8,18 0,105 -3,222 0,323zm48 -71c0,10 -2,15 5,20 9,-4 5,-37 5,-56 0,-38 2,-139 0,-172 0,-8 0,-8 -5,-10 -6,5 -5,4 -5,22l0 196zm-26 20c9,-1 8,1 8,-20l0 -202c0,-10 1,-14 -7,-17 -6,10 -4,230 -1,239zm84 310l1 52c9,5 40,8 52,8l0 -54c0,-19 -3,-36 -22,-38 -22,-3 -31,12 -31,32zm105 62l52 -3c1,-20 1,-40 0,-59 0,-19 -8,-34 -28,-33 -19,2 -25,16 -25,35 0,20 0,40 1,60zm104 -14l53 -13c0,-28 6,-73 -31,-67 -31,4 -22,51 -22,80zm104 -26l52 -7c2,-24 0,-50 -29,-47 -26,2 -24,29 -23,54z"/>
 </g>
</svg>
