<svg width="1998" height="1261" viewBox="0 0 1998 1261" fill="none" xmlns="http://www.w3.org/2000/svg">
<rect width="1998" height="1261" fill="#171A64"/>
<path d="M958.2 540.586C961.291 540.586 964.038 541.14 966.442 542.248C968.846 543.341 970.751 544.841 972.156 546.745C973.577 548.65 974.326 550.812 974.404 553.232H968.783C968.502 550.859 967.363 549.017 965.365 547.706C963.367 546.394 960.915 545.738 958.012 545.738C955.889 545.738 954.031 546.082 952.439 546.769C950.862 547.455 949.629 548.4 948.739 549.602C947.865 550.804 947.427 552.17 947.427 553.7C947.427 554.98 947.732 556.081 948.341 557.002C948.965 557.907 949.762 558.665 950.73 559.274C951.697 559.867 952.712 560.358 953.773 560.748C954.835 561.123 955.811 561.428 956.701 561.662L961.572 562.973C962.82 563.3 964.21 563.754 965.74 564.331C967.285 564.909 968.761 565.697 970.165 566.696C971.586 567.679 972.757 568.945 973.679 570.491C974.599 572.036 975.059 573.933 975.059 576.18C975.059 578.772 974.38 581.114 973.022 583.206C971.679 585.298 969.712 586.961 967.121 588.194C964.545 589.427 961.415 590.043 957.731 590.043C954.297 590.043 951.323 589.489 948.809 588.381C946.312 587.272 944.344 585.727 942.908 583.745C941.488 581.762 940.683 579.459 940.496 576.837H946.491C946.648 578.647 947.256 580.146 948.317 581.332C949.394 582.503 950.753 583.378 952.392 583.955C954.047 584.517 955.827 584.799 957.731 584.799C959.948 584.799 961.938 584.438 963.702 583.72C965.466 582.987 966.864 581.973 967.894 580.677C968.925 579.366 969.44 577.835 969.44 576.087C969.44 574.494 968.994 573.199 968.105 572.2C967.215 571.201 966.044 570.388 964.593 569.764C963.141 569.139 961.572 568.593 959.886 568.125L953.985 566.439C950.238 565.362 947.271 563.824 945.086 561.825C942.9 559.827 941.808 557.213 941.808 553.982C941.808 551.297 942.533 548.954 943.985 546.955C945.453 544.942 947.42 543.381 949.886 542.273C952.369 541.149 955.14 540.586 958.2 540.586Z" fill="#5559CF"/>
<path fill-rule="evenodd" clip-rule="evenodd" d="M1158.52 540.586C1162.61 540.586 1166.25 541.586 1169.43 543.584C1172.62 545.582 1175.12 548.423 1176.95 552.108C1178.78 555.792 1179.69 560.164 1179.69 565.222C1179.69 570.28 1178.78 574.65 1176.95 578.334C1175.12 582.019 1172.62 584.86 1169.43 586.858C1166.25 588.856 1162.61 589.856 1158.52 589.856C1154.43 589.856 1150.79 588.857 1147.61 586.858C1144.42 584.86 1141.92 582.019 1140.09 578.334C1138.27 574.65 1137.35 570.279 1137.35 565.222C1137.35 560.164 1138.27 555.792 1140.09 552.108C1141.92 548.423 1144.42 545.582 1147.61 543.584C1150.79 541.586 1154.43 540.586 1158.52 540.586ZM1158.52 546.02C1155.62 546.02 1152.99 546.753 1150.63 548.221C1148.29 549.688 1146.42 551.85 1145.03 554.707C1143.66 557.564 1142.97 561.069 1142.97 565.222C1142.97 569.374 1143.66 572.878 1145.03 575.735C1146.42 578.592 1148.29 580.755 1150.63 582.223C1152.99 583.69 1155.62 584.424 1158.52 584.424C1161.43 584.424 1164.05 583.69 1166.39 582.223C1168.75 580.755 1170.61 578.592 1171.99 575.735C1173.38 572.878 1174.07 569.374 1174.07 565.222C1174.07 561.069 1173.38 557.564 1171.99 554.707C1170.61 551.85 1168.75 549.688 1166.39 548.221C1164.05 546.753 1161.43 546.02 1158.52 546.02Z" fill="#5559CF"/>
<path fill-rule="evenodd" clip-rule="evenodd" d="M1305.8 540.586C1309.89 540.586 1313.53 541.586 1316.71 543.584C1319.9 545.582 1322.4 548.423 1324.23 552.108C1326.05 555.792 1326.97 560.164 1326.97 565.222C1326.97 570.279 1326.05 574.65 1324.23 578.334C1322.4 582.019 1319.9 584.86 1316.71 586.858C1313.53 588.856 1309.89 589.856 1305.8 589.856C1301.71 589.856 1298.07 588.857 1294.89 586.858C1291.7 584.86 1289.2 582.018 1287.37 578.334C1285.54 574.65 1284.63 570.279 1284.63 565.222C1284.63 560.164 1285.54 555.792 1287.37 552.108C1289.2 548.424 1291.7 545.582 1294.89 543.584C1298.07 541.586 1301.71 540.586 1305.8 540.586ZM1305.8 546.02C1302.89 546.02 1300.26 546.753 1297.91 548.221C1295.57 549.688 1293.7 551.85 1292.31 554.707C1290.94 557.564 1290.25 561.069 1290.25 565.222C1290.25 569.374 1290.94 572.878 1292.31 575.735C1293.7 578.592 1295.57 580.755 1297.91 582.223C1300.26 583.69 1302.89 584.424 1305.8 584.424C1308.7 584.424 1311.33 583.69 1313.67 582.223C1316.02 580.755 1317.89 578.592 1319.26 575.735C1320.65 572.878 1321.35 569.374 1321.35 565.222C1321.35 561.069 1320.65 557.564 1319.26 554.707C1317.89 551.85 1316.02 549.688 1313.67 548.221C1311.33 546.753 1308.7 546.02 1305.8 546.02Z" fill="#5559CF"/>
<path d="M796.235 563.629H796.797L810.098 541.243H816.748L799.42 569.437V589.201H793.612V569.437L776.283 541.243H782.934L796.235 563.629Z" fill="#5559CF"/>
<path fill-rule="evenodd" clip-rule="evenodd" d="M856.458 589.201H850.369L845.548 575.618H826.152L821.331 589.201H815.243L832.853 541.243H838.847L856.458 589.201ZM827.981 570.467H843.719L836.037 548.829H835.662L827.981 570.467Z" fill="#5559CF"/>
<path d="M874.863 563.629H875.425L888.726 541.243H895.377L878.048 569.437V589.201H872.24V569.437L854.912 541.243H861.562L874.863 563.629Z" fill="#5559CF"/>
<path fill-rule="evenodd" clip-rule="evenodd" d="M935.086 589.201H928.999L924.177 575.618H904.782L899.961 589.201H893.873L911.482 541.243H917.477L935.086 589.201ZM906.61 570.467H922.349L914.667 548.829H914.292L906.61 570.467Z" fill="#5559CF"/>
<path fill-rule="evenodd" clip-rule="evenodd" d="M1021.7 589.201H1015.61L1010.79 575.618H991.397L986.576 589.201H980.486L998.096 541.243H1004.09L1021.7 589.201ZM993.225 570.467H1008.96L1001.28 548.829H1000.91L993.225 570.467Z" fill="#5559CF"/>
<path d="M1061.02 578.991H1061.49V541.243H1067.2V589.201H1061.58L1035.45 551.546H1034.98V589.201H1029.17V541.243H1034.79L1061.02 578.991Z" fill="#5559CF"/>
<path fill-rule="evenodd" clip-rule="evenodd" d="M1113.57 541.243C1117.33 541.243 1120.41 541.921 1122.8 543.279C1125.2 544.621 1126.98 546.441 1128.14 548.736C1129.29 551.031 1129.87 553.591 1129.87 556.416C1129.87 559.242 1129.29 561.811 1128.14 564.121C1127 566.431 1125.23 568.273 1122.85 569.647C1120.46 571.005 1117.4 571.685 1113.67 571.685H1103.18V589.201H1097.37V541.243H1113.57ZM1103.18 566.532H1113.48C1116.05 566.532 1118.12 566.088 1119.68 565.198C1121.25 564.309 1122.38 563.106 1123.08 561.592C1123.8 560.062 1124.16 558.336 1124.16 556.416C1124.16 554.496 1123.8 552.778 1123.08 551.264C1122.38 549.75 1121.24 548.564 1119.66 547.706C1118.08 546.831 1115.99 546.394 1113.38 546.394H1103.18V566.532Z" fill="#5559CF"/>
<path d="M1221.3 578.991H1221.77V541.243H1227.48V589.201H1221.87L1195.73 551.546H1195.26V589.201H1189.46V541.243H1195.08L1221.3 578.991Z" fill="#5559CF"/>
<path fill-rule="evenodd" clip-rule="evenodd" d="M1254.56 541.243C1259.21 541.243 1263.19 542.202 1266.5 544.122C1269.81 546.027 1272.35 548.767 1274.11 552.341C1275.88 555.901 1276.76 560.164 1276.76 565.128C1276.76 570.124 1275.87 574.425 1274.09 578.031C1272.31 581.621 1269.72 584.384 1266.32 586.32C1262.91 588.24 1258.78 589.201 1253.91 589.201H1239.11V541.243H1254.56ZM1244.91 584.049H1253.53C1257.5 584.049 1260.78 583.284 1263.39 581.754C1266 580.224 1267.94 578.045 1269.22 575.22C1270.5 572.394 1271.14 569.031 1271.14 565.128C1271.14 561.257 1270.51 557.923 1269.24 555.129C1267.98 552.319 1266.09 550.165 1263.58 548.666C1261.06 547.152 1257.93 546.394 1254.19 546.394H1244.91V584.049Z" fill="#5559CF"/>
<path d="M1342.54 565.034H1343.1L1364.65 541.243H1372.23L1352.09 562.879L1372.23 589.201H1365.21L1348.53 566.908L1342.54 573.652V589.201H1336.73V541.243H1342.54V565.034Z" fill="#5559CF"/>
<path d="M1414.13 563.629H1414.69L1427.99 541.243H1434.64L1417.31 569.437V589.201H1411.5V569.437L1394.17 541.243H1400.83L1414.13 563.629Z" fill="#5559CF"/>
<path fill-rule="evenodd" clip-rule="evenodd" d="M1474.35 589.201H1468.26L1463.44 575.618H1444.05L1439.22 589.201H1433.14L1450.74 541.243H1456.74L1474.35 589.201ZM1445.87 570.467H1461.61L1453.93 548.829H1453.56L1445.87 570.467Z" fill="#5559CF"/>
<path d="M1509.56 546.394H1494.48V589.201H1488.67V546.394H1473.59V541.243H1509.56V546.394Z" fill="#5559CF"/>
<path d="M1524.33 589.201H1518.53V541.243H1524.33V589.201Z" fill="#5559CF"/>
<path d="M1559.21 581.051H1559.77L1576.07 541.243H1583V589.201H1577.57V552.763H1577.1L1562.11 589.201H1556.87L1541.88 552.763H1541.41V589.201H1535.98V541.243H1542.91L1559.21 581.051Z" fill="#5559CF"/>
<path fill-rule="evenodd" clip-rule="evenodd" d="M1087.4 621.79C1096.42 621.791 1104.54 623.864 1111.77 628.009C1119.03 632.121 1124.76 638.107 1128.95 645.963C1133.18 653.82 1135.3 663.359 1135.3 674.56C1135.29 685.76 1133.18 695.29 1128.95 703.146C1126.28 708.146 1122.98 712.385 1119.07 715.882L1133.75 734.342H1113.57L1105.31 724.158C1099.79 726.248 1093.83 727.318 1087.4 727.319C1078.3 727.319 1070.14 725.247 1062.91 721.1C1055.69 716.955 1049.98 710.954 1045.78 703.1C1041.59 695.244 1039.49 685.727 1039.49 674.56C1039.49 663.359 1041.59 653.82 1045.78 645.963C1049.98 638.108 1055.68 632.121 1062.91 628.009C1070.14 623.862 1078.3 621.79 1087.4 621.79ZM1087.4 640.997C1082.17 640.997 1077.6 642.285 1073.7 644.859C1069.81 647.434 1066.78 651.222 1064.61 656.204C1062.48 661.186 1061.42 667.306 1061.42 674.56C1061.42 681.814 1062.48 687.935 1064.61 692.917C1066.78 697.897 1069.81 701.676 1073.7 704.25C1077.6 706.824 1082.17 708.112 1087.4 708.112C1089.36 708.112 1091.23 707.924 1093.01 707.56L1079.9 690.204H1098.28L1105.84 699.963C1107.52 697.965 1108.96 695.627 1110.12 692.917C1112.29 687.935 1113.37 681.814 1113.37 674.56C1113.37 667.306 1112.28 661.185 1110.12 656.204C1107.99 651.222 1104.97 647.434 1101.08 644.859C1097.18 642.287 1092.62 640.998 1087.4 640.997Z" fill="#5559CF"/>
<path d="M853.878 621.79C861.47 621.79 868.102 623.09 873.763 625.698C879.455 628.305 883.88 631.938 887.043 636.583C890.206 641.23 891.842 646.616 891.943 652.733H871.21C870.81 648.69 869.098 645.547 866.07 643.307C863.04 641.068 858.923 639.952 853.729 639.951C850.2 639.951 847.219 640.454 844.788 641.457C842.358 642.426 840.489 643.776 839.19 645.514C837.925 647.253 837.29 649.227 837.29 651.434C837.223 653.272 837.603 654.879 838.434 656.25C839.3 657.621 840.485 658.81 841.983 659.813C843.482 660.783 845.217 661.629 847.181 662.365C849.146 663.067 851.246 663.668 853.477 664.169L862.67 666.376C867.131 667.379 871.225 668.717 874.954 670.388C878.684 672.06 881.92 674.119 884.651 676.56C887.381 679.001 889.494 681.882 890.993 685.192C892.524 688.501 893.306 692.294 893.34 696.572C893.306 702.858 891.707 708.314 888.543 712.928C885.412 717.508 880.881 721.065 874.954 723.606C869.06 726.114 861.951 727.376 853.626 727.376C845.367 727.376 838.174 726.101 832.046 723.56C825.952 721.019 821.189 717.255 817.759 712.273C814.362 707.257 812.579 701.053 812.413 693.664H833.34C833.573 697.108 834.562 699.989 836.294 702.296C838.058 704.568 840.406 706.287 843.334 707.457C846.298 708.593 849.645 709.169 853.374 709.169C857.038 709.169 860.224 708.63 862.922 707.56C865.65 706.491 867.766 705.005 869.264 703.1C870.763 701.195 871.508 699 871.508 696.526C871.508 694.219 870.824 692.281 869.459 690.71C868.127 689.138 866.161 687.802 863.563 686.698C861 685.596 857.857 684.589 854.13 683.687L842.991 680.871C834.366 678.764 827.551 675.477 822.556 670.997C817.562 666.517 815.083 660.482 815.115 652.894C815.081 646.674 816.73 641.231 820.06 636.583C823.423 631.938 828.031 628.305 833.89 625.698C839.751 623.09 846.418 621.79 853.878 621.79Z" fill="#5559CF"/>
<path fill-rule="evenodd" clip-rule="evenodd" d="M1197.44 621.79C1206.46 621.791 1214.58 623.864 1221.81 628.009C1229.07 632.121 1234.8 638.107 1238.99 645.963C1243.22 653.82 1245.33 663.359 1245.33 674.56C1245.33 685.76 1243.22 695.29 1238.99 703.146C1234.8 711.003 1229.07 717 1221.81 721.146C1214.58 725.259 1206.46 727.318 1197.44 727.319C1188.34 727.319 1180.18 725.247 1172.95 721.1C1165.73 716.955 1160.02 710.954 1155.82 703.1C1151.63 695.244 1149.53 685.727 1149.53 674.56C1149.53 663.359 1151.63 653.82 1155.82 645.963C1160.02 638.108 1165.72 632.121 1172.95 628.009C1180.18 623.862 1188.34 621.79 1197.44 621.79ZM1197.44 640.997C1192.21 640.997 1187.64 642.285 1183.74 644.859C1179.85 647.434 1176.82 651.222 1174.65 656.204C1172.52 661.186 1171.46 667.306 1171.46 674.56C1171.46 681.814 1172.52 687.935 1174.65 692.917C1176.82 697.897 1179.85 701.676 1183.74 704.25C1187.64 706.824 1192.21 708.112 1197.44 708.112C1202.66 708.111 1207.22 706.823 1211.12 704.25C1215.01 701.676 1218.03 697.897 1220.16 692.917C1222.32 687.935 1223.41 681.814 1223.41 674.56C1223.41 667.306 1222.32 661.185 1220.16 656.204C1218.03 651.222 1215.01 647.434 1211.12 644.859C1207.22 642.287 1202.66 640.998 1197.44 640.997Z" fill="#5559CF"/>
<path d="M797.908 725.917H776.283V623.192H797.908V725.917Z" fill="#5559CF"/>
<path d="M988.015 641.1H956.693V725.917H935.32V641.1H903.998V623.192H988.015V641.1Z" fill="#5559CF"/>
<path d="M1023.48 725.917H1001.86V623.192H1023.48V725.917Z" fill="#5559CF"/>
<path d="M1316.21 692.215H1317.41L1345.59 623.192H1372.26V725.917H1351.29V659.055H1350.43L1323.96 725.411H1309.67L1283.19 658.802H1282.35V725.917H1261.36V623.192H1288.04L1316.21 692.215Z" fill="#5559CF"/>
<path fill-rule="evenodd" clip-rule="evenodd" d="M1483 725.917H1459.83L1452.25 702.491H1415.3L1407.71 725.917H1384.54L1419.86 623.192H1447.74L1483 725.917ZM1420.8 685.537H1446.76L1434.19 646.664H1433.39L1420.8 685.537Z" fill="#5559CF"/>
<path d="M1516.94 665.583H1560.86V623.192H1582.44V725.917H1560.86V683.48H1516.94V725.917H1495.32V623.192H1516.94V665.583Z" fill="#5559CF"/>
<g clip-path="url(#clip0_97_17)">
<path fill-rule="evenodd" clip-rule="evenodd" d="M461.212 519.212H526.547L572.759 473L618.918 519.212H684.252V584.547L730.465 630.759L684.252 676.918V742.252H618.918L572.759 788.465L526.547 742.252H461.212V676.918L415 630.759L461.212 584.547V519.212Z" fill="#5559CF"/>
<path fill-rule="evenodd" clip-rule="evenodd" d="M467.267 525.268H529.043L572.759 481.552L616.421 525.268H678.25V587.043L721.912 630.759L678.25 674.421V736.25H616.421L572.759 779.913L529.043 736.25H467.267V674.421L423.552 630.759L467.267 587.043V525.268Z" fill="#171A64"/>
<path fill-rule="evenodd" clip-rule="evenodd" d="M471.889 529.889H530.955L572.759 488.085L614.509 529.889H673.576V588.955L715.379 630.759L673.576 672.509V731.576H614.509L572.759 773.379L530.955 731.576H471.889V672.509L430.085 630.759L471.889 588.955V529.889Z" fill="#5559CF"/>
<path fill-rule="evenodd" clip-rule="evenodd" d="M481.609 539.609H534.992L572.759 501.896L610.472 539.609H663.855V592.992L701.622 630.759L663.855 668.472V721.855H610.472L572.759 759.622L534.992 721.855H481.609V668.472L443.896 630.759L481.609 592.992V539.609Z" fill="#171A64"/>
<path fill-rule="evenodd" clip-rule="evenodd" d="M498.288 556.288H541.898L572.759 525.48L603.567 556.288H647.176V599.898L677.984 630.759L647.176 661.567V705.176H603.567L572.759 735.984L541.898 705.176H498.288V661.567L467.48 630.759L498.288 599.898V556.288Z" fill="#5559CF"/>
<path fill-rule="evenodd" clip-rule="evenodd" d="M502.272 560.272H543.544L572.759 531.057L601.92 560.272H643.245V601.544L672.407 630.759L643.245 659.92V701.246H601.92L572.759 730.407L543.544 701.246H502.272V659.92L473.057 630.759L502.272 601.544V560.272Z" fill="#171A64"/>
<path fill-rule="evenodd" clip-rule="evenodd" d="M516.189 574.189H549.281L572.759 550.711L596.184 574.189H629.329V607.281L652.754 630.759L629.329 654.184V687.329H596.184L572.759 710.754L549.281 687.329H516.189V654.184L492.711 630.759L516.189 607.281V574.189Z" fill="#5559CF" stroke="#171A64" stroke-width="0.288012"/>
<path fill-rule="evenodd" clip-rule="evenodd" d="M565.375 626.244L577.061 619.657V656.68C577.061 656.68 580.354 658.167 580.939 659.814C581.523 661.408 562.985 661.195 561.179 660.08C559.426 658.911 565.057 656.946 565.057 656.946L565.375 626.244Z" fill="#171A64"/>
<path fill-rule="evenodd" clip-rule="evenodd" d="M566.809 688.232C566.809 688.232 580.939 691.95 588.216 690.781C595.493 689.666 607.285 676.918 612.756 668.207C632.409 637.345 621.627 591.505 588.959 579.182C581.204 576.26 577.167 580.51 577.167 580.51C567.022 560.484 547.793 574.667 537.223 585.768C515.02 609.14 520.969 643.507 539.135 667.304C545.987 676.227 557.62 676.918 561.87 677.237C566.066 677.555 567.288 677.183 565.694 673.837C564.047 670.544 544.447 654.927 544.447 654.927C544.447 654.927 540.463 652.165 541.738 656.096C543.066 659.973 552.043 669.534 552.043 669.534C552.043 669.534 547.368 669.322 545.297 667.304C524.103 646.375 521.128 592.992 550.396 585.343C558.045 583.378 556.239 584.865 556.239 588.159C556.239 588.424 538.604 615.673 546.997 628.528C549.281 632.034 550.396 605.9 557.886 600.588C565.322 595.276 573.927 593.63 581.045 596.923C588.216 600.269 591.615 604.413 591.615 604.413C591.615 604.413 593.209 600.429 589.013 596.923C584.816 593.47 575.574 594.055 574.565 590.814C572.174 583.112 597.352 576.101 612.862 608.503C622.423 628.528 612.862 654.98 612.862 654.98C606.276 672.403 583.541 683.079 566.809 688.232Z" fill="#171A64"/>
<path fill-rule="evenodd" clip-rule="evenodd" d="M562.136 618.754C562.401 618.807 562.773 618.914 563.039 619.02C565.27 619.764 567.926 619.604 570.05 618.489C571.166 617.958 572.228 617.055 572.865 616.258C573.45 615.567 573.875 614.824 574.247 614.08C574.353 613.814 574.512 613.496 574.565 613.23C575.415 610.68 575.362 608.025 573.768 605.316C573.025 603.988 571.962 602.925 570.741 602.129C570.156 601.81 569.838 601.597 569.147 601.385C569.041 601.332 568.882 601.279 568.775 601.226C568.563 601.172 568.404 601.172 568.297 601.119C570.475 600.747 573.078 601.119 574.937 602.182L575.468 602.5C575.893 602.713 576.584 603.297 576.956 603.616C577.274 603.881 577.54 604.2 577.859 604.519C579.027 605.847 579.983 607.706 580.355 609.777C580.833 612.327 580.302 614.452 579.346 616.47C579.186 616.736 578.815 617.32 578.655 617.533C578.39 617.958 578.283 618.17 577.912 618.542C576.531 620.135 574.3 621.623 571.856 622.048C568.935 622.526 566.332 621.888 564.101 620.401C563.623 620.082 562.401 619.126 562.136 618.754Z" fill="#171A64"/>
<path fill-rule="evenodd" clip-rule="evenodd" d="M568.881 607.865C569.731 607.971 570.581 607.971 571.431 608.025C572.228 608.078 573.131 608.237 573.928 608.237L569.784 611.212C569.891 611.743 571.166 615.408 571.431 616.364C571.219 616.258 571.059 616.152 570.9 615.992L567.129 613.389C567.022 613.336 566.704 613.602 566.597 613.708C566.385 613.814 566.226 613.921 566.013 614.08C565.694 614.292 565.323 614.558 564.951 614.824C564.526 615.089 563.145 616.152 562.826 616.311C562.985 615.408 564.366 611.69 564.42 611.212L562.295 609.724C561.976 609.512 560.17 608.396 560.064 608.237L565.376 607.865C565.535 607.493 565.641 607.015 565.801 606.644C566.119 605.634 566.651 603.988 567.022 603.085C567.022 602.978 567.022 603.032 567.022 602.978C567.075 602.925 567.075 602.925 567.075 602.872L568.881 607.865Z" fill="#171A64"/>
<path d="M587.473 675.218L587.632 675.484L582.161 678.246L582.002 677.98L582.373 677.821C582.639 677.662 582.851 677.502 583.011 677.29C583.117 677.13 583.117 676.971 583.117 676.759C583.117 676.599 582.958 676.281 582.692 675.749L579.239 668.791C578.974 668.26 578.761 667.941 578.655 667.835C578.496 667.729 578.336 667.676 578.124 667.622C577.911 667.622 577.646 667.676 577.327 667.835L577.008 667.994L576.849 667.729L582.32 665.02L582.48 665.285L582.108 665.445C581.842 665.604 581.577 665.763 581.47 665.976C581.364 666.135 581.311 666.294 581.364 666.507C581.364 666.666 581.47 666.985 581.736 667.516L585.242 674.475C585.507 675.006 585.72 675.324 585.826 675.431C585.985 675.537 586.145 675.59 586.357 675.59C586.57 675.643 586.835 675.537 587.154 675.431L587.473 675.218ZM589.81 664.223L591.456 666.507L591.191 666.666C590.447 666.135 589.863 665.87 589.385 665.87C588.907 665.816 588.482 665.87 588.163 666.082C588.004 666.188 587.844 666.401 587.791 666.613C587.738 666.826 587.791 667.038 587.898 667.197C588.004 667.357 588.11 667.41 588.322 667.463C588.588 667.569 589.225 667.622 590.235 667.676C591.297 667.676 591.988 667.782 592.466 667.941C592.891 668.154 593.262 668.472 593.528 668.844C593.74 669.216 593.9 669.641 593.953 670.172C594.006 670.65 593.953 671.075 593.74 671.5C593.528 671.925 593.209 672.244 592.784 672.509C592.466 672.722 591.988 672.934 591.297 673.093C591.138 673.093 590.978 673.147 590.925 673.2C590.766 673.306 590.713 673.518 590.819 673.837L590.553 673.996L588.801 671.606L589.066 671.447C589.704 671.978 590.341 672.244 590.925 672.297C591.51 672.35 591.934 672.297 592.306 672.084C592.519 671.925 592.678 671.712 592.731 671.5C592.784 671.234 592.731 671.022 592.572 670.809C592.413 670.597 592.253 670.438 591.988 670.384C591.722 670.278 591.244 670.278 590.5 670.225C589.438 670.225 588.694 670.119 588.322 670.013C587.738 669.853 587.313 669.482 586.995 669.003C586.623 668.525 586.516 667.888 586.57 667.251C586.676 666.613 587.048 666.029 587.738 665.604C588.11 665.338 588.482 665.232 588.96 665.179C589.119 665.179 589.279 665.126 589.332 665.073C589.438 665.02 589.491 664.967 589.544 664.913C589.544 664.807 589.544 664.648 589.544 664.382L589.81 664.223ZM592.359 658.592L594.325 660.823L595.759 659.549L596.343 660.186L594.909 661.461L598.255 665.179C598.574 665.551 598.787 665.763 598.946 665.816C599.052 665.87 599.158 665.923 599.318 665.923C599.424 665.87 599.53 665.87 599.637 665.816C599.902 665.551 599.955 665.073 599.849 664.435H600.168C600.539 665.551 600.327 666.454 599.583 667.197C599.212 667.516 598.787 667.676 598.309 667.729C597.884 667.729 597.459 667.676 597.193 667.463C596.981 667.357 596.609 666.985 596.025 666.348L593.103 663.107L592.306 663.798L592.094 663.585C592.306 662.682 592.413 661.886 592.413 661.142C592.413 660.345 592.306 659.602 592.147 658.805L592.359 658.592ZM595.068 654.396C595.334 654.131 595.6 653.971 595.971 653.918C596.343 653.918 596.662 654.024 596.981 654.237C597.246 654.502 597.406 654.821 597.459 655.14C597.459 655.512 597.352 655.883 597.14 656.149C596.874 656.415 596.609 656.574 596.237 656.627C595.865 656.627 595.546 656.521 595.228 656.308C594.962 656.096 594.803 655.777 594.75 655.405C594.75 655.034 594.856 654.715 595.068 654.396ZM598.84 655.99L603.78 660.133C604.205 660.505 604.576 660.664 604.789 660.664C604.948 660.664 605.214 660.558 605.479 660.239L605.692 660.452L602.877 663.851L602.664 663.639C602.877 663.373 602.983 663.054 602.93 662.789C602.877 662.629 602.664 662.364 602.239 661.992L598.574 658.964C598.149 658.592 597.831 658.38 597.618 658.38C597.406 658.38 597.14 658.539 596.874 658.805L596.662 658.646L598.84 655.99ZM608.666 652.962C608.879 653.44 608.985 653.812 609.038 654.184C609.038 654.609 608.985 655.034 608.826 655.458C608.454 656.415 607.71 656.946 606.648 657.158C605.798 657.318 604.948 657.211 603.992 656.84C603.195 656.521 602.558 656.043 602.027 655.458C601.496 654.821 601.124 654.184 601.018 653.44C600.911 652.75 600.964 652.059 601.23 651.422C601.389 650.997 601.602 650.625 601.921 650.359C602.186 650.094 602.505 649.881 602.93 649.775L602.558 648.128L602.664 647.863L612.385 651.847C612.863 652.059 613.181 652.165 613.341 652.112C613.606 652.059 613.819 651.793 614.031 651.422L614.297 651.528L612.544 655.83L612.225 655.724C612.385 655.405 612.438 655.14 612.438 654.98C612.385 654.768 612.332 654.609 612.225 654.502C612.119 654.396 611.907 654.29 611.535 654.131L608.666 652.962ZM607.923 652.643L604.842 651.422C603.992 651.05 603.408 650.89 603.089 650.837C602.824 650.837 602.505 650.89 602.186 651.05C602.027 651.156 601.921 651.315 601.814 651.475C601.655 651.9 601.708 652.271 601.974 652.643C602.399 653.228 603.355 653.812 604.789 654.449C605.957 654.927 606.807 655.087 607.392 654.98C607.817 654.874 608.082 654.662 608.188 654.343C608.295 654.184 608.295 653.918 608.295 653.599C608.242 653.334 608.135 653.015 607.923 652.643ZM603.78 641.807C603.886 641.117 604.205 640.532 604.683 640.001C605.161 639.47 605.745 639.098 606.489 638.939C607.179 638.78 607.923 638.726 608.72 638.886C609.835 639.151 610.738 639.576 611.375 640.32C612.119 641.17 612.438 642.232 612.172 643.454C611.96 644.623 611.322 645.472 610.366 645.95C609.41 646.429 608.401 646.588 607.285 646.322C606.117 646.11 605.214 645.579 604.47 644.782C603.78 643.932 603.514 642.976 603.78 641.807ZM604.364 641.914C604.311 642.179 604.364 642.445 604.523 642.71C604.736 642.923 605.108 643.188 605.745 643.348C606.382 643.56 607.285 643.773 608.401 643.985C609.038 644.091 609.569 644.198 610.154 644.198C610.526 644.198 610.897 644.144 611.11 643.985C611.375 643.826 611.535 643.613 611.588 643.348C611.641 643.082 611.588 642.87 611.482 642.657C611.322 642.392 611.11 642.232 610.791 642.073C610.26 641.86 609.198 641.595 607.551 641.276C606.595 641.064 605.904 641.011 605.533 641.011C605.161 641.064 604.842 641.17 604.63 641.329C604.523 641.489 604.417 641.648 604.364 641.914ZM605.214 633.202H606.276C605.798 632.724 605.426 632.352 605.267 631.981C605.054 631.556 604.948 631.184 604.948 630.706C604.948 630.175 605.108 629.75 605.32 629.431C605.586 629.059 605.957 628.794 606.436 628.581C605.904 628.156 605.533 627.678 605.32 627.253C605.108 626.828 605.001 626.403 605.001 625.925C605.001 625.341 605.108 624.916 605.373 624.597C605.639 624.279 605.957 624.013 606.329 623.907C606.754 623.747 607.392 623.694 608.242 623.694H611.588C612.172 623.694 612.597 623.641 612.703 623.535C612.863 623.429 612.969 623.216 613.022 622.844H613.341V627.041H613.022C612.969 626.722 612.863 626.456 612.65 626.297C612.491 626.191 612.119 626.138 611.588 626.138H608.082C607.339 626.138 606.914 626.138 606.701 626.191C606.489 626.297 606.382 626.35 606.276 626.509C606.17 626.616 606.117 626.775 606.117 626.934C606.117 627.2 606.223 627.412 606.382 627.678C606.542 627.944 606.86 628.209 607.179 628.475H611.535C612.119 628.475 612.491 628.422 612.65 628.315C612.863 628.209 612.969 627.944 613.022 627.572H613.341L613.288 631.768H613.022C612.969 631.556 612.916 631.343 612.863 631.237C612.757 631.078 612.597 631.024 612.491 630.971C612.332 630.918 612.013 630.918 611.535 630.918L608.082 630.865C607.339 630.865 606.86 630.918 606.701 630.971C606.489 631.024 606.329 631.131 606.223 631.237C606.117 631.396 606.064 631.556 606.064 631.715C606.064 631.927 606.17 632.14 606.276 632.352C606.436 632.618 606.754 632.884 607.179 633.202H611.535C612.119 633.202 612.491 633.149 612.703 633.043C612.863 632.937 612.969 632.671 613.022 632.352H613.288V636.496H612.969C612.969 636.177 612.863 635.911 612.65 635.805C612.544 635.699 612.172 635.646 611.535 635.646H606.967C606.329 635.646 605.957 635.699 605.798 635.805C605.639 635.911 605.533 636.124 605.479 636.496H605.214V633.202ZM610.313 615.886C611.429 616.63 612.066 617.373 612.278 618.117C612.438 618.542 612.385 618.967 612.172 619.339C611.96 619.71 611.641 619.976 611.163 620.082C610.579 620.242 609.994 620.135 609.357 619.764C608.72 619.392 607.817 618.436 606.542 616.948L605.745 617.161C605.161 617.32 604.789 617.426 604.683 617.533C604.523 617.639 604.417 617.798 604.364 618.011C604.311 618.223 604.311 618.436 604.364 618.648C604.47 619.02 604.63 619.286 604.842 619.498C605.001 619.604 605.108 619.657 605.267 619.604C605.373 619.604 605.479 619.498 605.639 619.286C605.798 618.967 606.011 618.807 606.223 618.754C606.489 618.701 606.754 618.701 607.02 618.861C607.285 619.02 607.445 619.286 607.551 619.604C607.604 619.923 607.604 620.295 607.445 620.56C607.285 620.879 607.073 621.038 606.807 621.145C606.382 621.251 605.957 621.198 605.533 620.985C605.054 620.72 604.683 620.348 604.311 619.87C603.992 619.339 603.727 618.754 603.567 618.17C603.355 617.426 603.355 616.789 603.567 616.258C603.727 615.78 603.992 615.408 604.311 615.142C604.523 615.036 605.054 614.824 605.904 614.611L608.932 613.761C609.304 613.655 609.516 613.602 609.569 613.549C609.676 613.496 609.729 613.443 609.782 613.389C609.782 613.283 609.782 613.23 609.782 613.177C609.729 613.018 609.623 612.911 609.357 612.805L609.463 612.486C609.994 612.646 610.366 612.858 610.632 613.124C610.897 613.336 611.057 613.655 611.163 614.027C611.322 614.505 611.269 614.877 611.163 615.195C611.004 615.514 610.738 615.727 610.313 615.886ZM609.729 616.045L607.126 616.789C607.71 617.32 608.242 617.745 608.773 617.958C609.145 618.064 609.463 618.117 609.782 618.011C610.048 617.958 610.26 617.798 610.366 617.533C610.526 617.373 610.526 617.161 610.472 616.895C610.366 616.63 610.154 616.364 609.729 616.045ZM597.459 612.54L601.549 610.256C600.911 610.096 600.433 609.884 600.061 609.671C599.743 609.459 599.477 609.14 599.265 608.821C598.999 608.343 598.946 607.918 598.999 607.44C599.052 607.015 599.265 606.644 599.53 606.325C599.796 606.059 600.38 605.687 601.177 605.209L603.886 603.669C604.47 603.35 604.736 603.138 604.842 602.925C604.895 602.766 604.895 602.5 604.736 602.182L605.001 602.022L607.02 605.634L606.754 605.741C606.595 605.528 606.382 605.422 606.17 605.369C605.957 605.369 605.639 605.475 605.108 605.794L601.974 607.547C601.389 607.865 601.018 608.131 600.911 608.237C600.805 608.396 600.699 608.503 600.699 608.662C600.646 608.821 600.699 608.981 600.752 609.087C600.858 609.299 601.071 609.459 601.283 609.565C601.549 609.671 601.921 609.724 602.399 609.777L606.17 607.653C606.648 607.334 606.967 607.122 607.02 606.962C607.179 606.803 607.126 606.537 607.02 606.219L607.285 606.059L609.304 609.618L609.038 609.777C608.826 609.512 608.613 609.353 608.401 609.299C608.242 609.299 607.87 609.459 607.339 609.777L600.168 613.814C599.637 614.133 599.318 614.346 599.265 614.505C599.158 614.717 599.212 614.93 599.318 615.302L599.052 615.408L597.459 612.54Z" fill="#171A64"/>
</g>
<defs>
<clipPath id="clip0_97_17">
<rect width="315.465" height="315.465" fill="white" transform="translate(415 473)"/>
</clipPath>
</defs>
</svg>
