<svg width="108" height="107" viewBox="0 0 108 107" fill="none" xmlns="http://www.w3.org/2000/svg">
<path fill-rule="evenodd" clip-rule="evenodd" d="M0.659626 18.037C-0.264621 30.2401 -0.112529 50.284 0.472437 62.6803C1.13345 76.5816 10.6625 84.5628 17.8225 90.1667C21.2504 92.8486 41.3031 107.013 45.8366 105.936C50.2004 104.899 69.9957 90.9045 73.0375 88.5388L69.8611 82.8647C69.7266 82.6305 69.5335 82.3143 69.4107 82.1093L68.4455 80.5927C63.3797 85.1074 51.7272 94.1661 44.1519 96.7601C34.1899 91.4139 18.0331 81.0319 13.4996 74.3331C7.19955 65.0343 7.98925 37.7529 9.42242 24.566C12.5988 22.5927 43.0814 9.38823 44.1753 9.37652C45.0703 9.36481 76.2782 22.7859 79.671 24.4314L79.7236 52.4506C81.9056 51.1974 81.6599 51.0862 83.7541 49.7043C90.6918 45.1076 88.3636 48.7147 88.3636 18.9622L45.1287 0.00164963C42.9527 -0.185731 8.25834 15.6479 0.659626 18.037ZM59.4838 32.1315C61.7359 26.7853 59.981 26.0182 55.3072 23.4535C52.6748 22.013 47.3692 18.0019 44.5906 19.536C38.5128 22.903 46.7316 25.4327 49.5511 27.043C53.1194 29.0866 55.9097 31.3761 59.4838 32.1315ZM25.7898 52.5794C28.7204 56.9887 39.6008 64.5951 43.9822 59.3426C43.0346 56.2684 44.263 57.6913 40.3262 55.2671C38.2495 53.9906 36.2724 52.9717 34.6052 52.0055C29.6915 49.148 27.1352 45.2891 25.7898 52.5794ZM88.0536 102.106L95.2603 107.002C96.8631 101.743 96.1553 95.5246 96.0383 89.9735C84.9591 96.4732 86.8778 92.5324 80.2384 89.7802L80.7883 106.879L88.0536 102.106ZM45.2691 69.3616C33.1369 69.3792 28.9954 66.7383 25.1814 77.46L50.8673 77.4541L63.6839 77.5888C60.8409 70.2224 60.8234 69.3382 51.9845 69.3499L45.2691 69.3616ZM31.0135 46.6652C35.623 49.0836 39.5482 52.1929 44.1519 53.8149L46.8895 47.6607L68.7731 60.5138C69.7675 59.1553 69.7441 58.3706 71.2358 56.1045C72.3648 54.3946 73.055 54.0491 74.1782 52.4798L51.733 40.5461L55.5762 34.6494L49.5452 30.3573C46.7433 28.7352 44.7076 27.5875 41.4669 26.3637C39.127 37.2083 34.1021 39.8024 31.0135 46.6652ZM84.6666 59.0791C100.601 53.4577 106.936 78.473 92.0372 82.6832C76.4069 87.0983 68.5274 64.7708 84.6666 59.0791ZM86.8602 71.1183L85.4446 68.9576C78.6415 68.7761 84.4209 73.4489 86.9304 75.6623C89.0012 74.4385 89.8026 73.5835 91.8968 71.6219C95.5704 68.1788 95.5353 70.8724 95.5411 65.9478C91.0252 66.1937 89.8436 68.1495 86.8602 71.1183ZM82.3384 87.2682C86.053 89.1068 82.8532 89.8036 88.9252 90.6176C93.4528 88.7789 90.9725 88.2578 95.0381 86.7997C97.3779 85.9565 99.9869 86.0853 102.496 85.2128C103.549 82.3787 103.345 79.5153 104.427 76.9681C106.082 73.0624 106.808 75.8731 107.995 70.5093C106.41 65.4559 105.883 67.9153 104.362 64.1267C102.999 60.7304 104.468 60.7246 102.444 57.0648C97.9219 54.055 99.361 56.3328 94.962 54.5879C90.4578 52.8077 94.0261 52.2983 87.8079 50.9866C82.239 52.6906 85.4622 52.9014 81.1802 54.7167C76.9567 56.5027 78.2729 53.7271 74.5642 57.2405C70.838 61.193 74.2718 59.8579 71.6979 64.6069C70.2472 67.2829 68.1238 66.8437 68.738 71.4287C69.3054 75.6154 70.7444 73.5191 72.3121 77.987C73.096 80.2297 72.9205 82.6715 73.9266 85.3826C76.6584 86.1322 79.8172 86.0209 82.3384 87.2682Z" fill="#FEFEFE"/>
</svg>
