<svg width="108" height="107" viewBox="0 0 108 107" fill="none" xmlns="http://www.w3.org/2000/svg">
<path fill-rule="evenodd" clip-rule="evenodd" d="M94.9705 28.9568C90.9614 28.9568 88.9568 29.9553 86.9523 33.9494C86.9523 34.9479 88.9568 36.9449 89.9591 39.9404C90.9614 41.9375 91.9636 43.9345 91.9636 46.93C95.9727 62.9062 89.9591 78.8824 77.9318 88.8675C60.8932 102.847 35.8364 99.8511 21.8046 85.872C-1.24768 62.9062 9.77731 21.9672 42.8523 14.9777C52.875 12.9806 62.8978 14.9777 70.9159 18.9717C71.9182 19.9702 73.9227 20.9687 74.925 20.9687C76.9296 18.9717 78.9341 17.9732 78.9341 12.9806C77.9318 11.9821 73.9227 9.98511 70.9159 8.9866C49.8682 0 24.8114 6.98958 11.7819 23.9643C-6.25904 45.9315 -2.24996 74.8883 14.7887 91.863C21.8046 98.8526 33.8319 105.842 47.8637 106.841C72.9205 108.838 95.9727 91.863 101.986 66.9003C102.989 59.9107 102.989 52.9211 101.986 44.933C100.984 40.939 96.975 31.9524 94.9705 28.9568ZM55.8818 44.933C53.8773 44.933 52.875 43.9345 50.8705 43.9345C40.8478 44.933 35.8364 56.9151 42.8523 63.9047C48.8659 69.8958 58.8887 68.8973 61.8955 60.9092C63.9 55.9166 62.8977 52.9211 62.8977 51.9226C63.9 51.9226 64.9023 50.9241 65.9046 49.9256C68.9114 46.93 72.9205 42.936 75.9273 38.9419C76.9296 37.9434 77.9318 37.9434 78.9341 36.9449L89.9591 25.9613C89.9591 25.9613 92.9659 24.9628 93.9682 24.9628C95.9727 23.9643 95.9727 24.9628 97.9773 22.9658C98.9796 21.9672 106.998 13.9792 108 12.9806H94.9705V0C93.9682 0 85.95 8.9866 84.9477 9.98511C82.9432 11.9821 83.9455 11.9821 82.9432 13.9792C82.9432 14.9777 81.9409 17.9732 81.9409 17.9732C81.9409 18.9717 77.9318 22.9658 76.9296 23.9643L55.8818 44.933ZM80.9387 39.9404C79.9364 39.9404 73.9228 45.9315 72.9205 46.93C73.9228 49.9256 74.925 50.9241 74.925 54.9181C75.9273 76.8854 49.8682 87.869 34.8341 72.8913C22.8069 60.9092 26.8159 39.9404 43.8546 33.9494C47.8637 31.9524 52.875 31.9524 56.8841 32.9509C58.8887 33.9494 59.8909 33.9494 60.8932 33.9494C62.8977 31.9524 65.9046 29.9553 67.9091 26.9598C66.9068 25.9613 59.8909 23.9643 56.8841 22.9658C25.8137 17.9732 4.76595 55.9166 27.8182 79.8809C37.8409 90.8645 57.8864 93.8601 71.9182 82.8764C82.9432 73.8898 87.9546 58.9122 82.9432 44.933C81.9409 42.936 80.9387 40.939 80.9387 39.9404Z" fill="white"/>
</svg>
