<svg width="137" height="97" viewBox="0 0 137 97" fill="none" xmlns="http://www.w3.org/2000/svg">
<path d="M34.2565 68.0113C46.7335 42.8286 109.119 42.1988 107.985 86.8981C96.0751 96.3416 75.0912 98.2301 58.6442 96.3414C38.7943 93.8232 21.7796 92.5643 34.2565 68.0113Z" fill="white"/>
<path d="M2.40099 38.5631C9.43933 24.2842 44.6315 23.9272 43.9918 49.2721C37.2734 54.6267 25.4357 55.6975 16.1578 54.6266C4.96065 53.1987 -4.6371 52.4847 2.40099 38.5631Z" fill="white"/>
<path d="M95.401 38.5631C102.439 24.2842 137.632 23.9272 136.992 49.2721C130.273 54.6267 118.436 55.6975 109.158 54.6266C97.9607 53.1987 88.3629 52.4847 95.401 38.5631Z" fill="white"/>
<path d="M60.9127 2.53576C86.4336 -10.055 98.3433 27.7183 79.0611 39.6803C68.8526 46.6056 56.3749 40.9399 52.4049 32.7555C47.3006 21.4232 48.4356 8.83146 60.9127 2.53576Z" fill="white"/>
<path d="M17.4381 1.4381C31.8346 -5.70117 38.5528 15.7172 27.6754 22.4996C21.9169 26.426 14.8789 23.2133 12.6393 18.5729C9.75995 12.1474 10.3998 5.00783 17.4381 1.4381Z" fill="white"/>
<path d="M110.438 1.4381C124.835 -5.70117 131.553 15.7172 120.675 22.4996C114.917 26.426 107.879 23.2133 105.639 18.5729C102.76 12.1474 103.4 5.00783 110.438 1.4381Z" fill="white"/>
</svg>
