<svg width="132" height="94" viewBox="0 0 132 94" fill="none" xmlns="http://www.w3.org/2000/svg">
<path d="M85.3959 67.2188C83.6727 49.9833 106.079 40.5041 116.42 55.1543C112.112 53.4308 111.25 51.7067 104.356 52.5684C97.4617 54.2919 91.4287 59.4628 90.5668 67.2188C89.7051 73.251 91.4286 74.975 92.2905 78.4219C91.4286 76.6986 89.7053 76.6984 87.9819 74.1133C87.1201 71.5279 86.2577 69.8041 85.3959 67.2188Z" fill="white"/>
<path d="M19.9008 52.5684C27.6569 43.9507 41.4459 48.2601 44.893 55.1543C36.2752 51.7072 29.3801 51.7068 24.2094 57.7393C18.1771 62.9099 18.1778 68.9425 20.7631 78.4219C18.1778 77.5601 17.3157 74.975 15.5922 72.3896C14.7304 70.6661 13.8686 68.0805 13.8686 65.4951C13.8687 59.4628 16.4537 55.1537 19.9008 52.5684Z" fill="white"/>
<path fill-rule="evenodd" clip-rule="evenodd" d="M48.3393 0C53.51 0.861782 56.9575 3.4474 58.6811 6.89453C61.2662 10.3416 60.4043 15.5121 61.266 20.6826L69.8842 19.8213C70.746 14.6506 69.0221 10.3411 72.4692 6.03223C79.3634 -3.44734 94.0136 -0.86171 96.5991 11.2031C96.5991 14.6503 96.5996 14.6505 99.185 16.374C113.835 25.8536 121.592 37.0564 128.486 52.5684C137.103 72.3891 122.453 89.6249 107.803 93.0723C97.4619 95.6576 87.9821 92.2106 81.9496 87.04C79.3643 84.4547 76.7787 81.869 75.0551 78.4219C68.161 64.6336 77.6402 66.3574 60.4047 66.3574C58.6812 67.2192 59.5429 67.2194 58.6811 69.8047C56.0956 86.1784 39.7213 97.3811 22.4858 93.0723C7.83565 89.6248 -5.95227 71.5274 2.66546 52.5684C9.55967 37.0565 17.3161 25.8536 31.9662 16.374C34.5514 13.7888 33.6894 14.6502 34.5512 11.2031C36.2747 4.30903 41.4452 0.000172456 48.3393 0ZM122.453 60.3252C120.729 49.9838 110.388 39.6417 96.5991 43.0889C68.1608 48.2599 76.7787 91.3491 105.217 86.1787C115.559 83.5934 125.038 73.2518 122.453 60.3252ZM51.7865 60.3252C49.2012 49.1221 38.8601 39.6419 25.0717 43.0889C-3.36711 49.1213 5.2506 92.2107 34.5512 85.3164C44.8925 83.5928 54.3716 72.39 51.7865 60.3252Z" fill="white"/>
</svg>
