<?xml version="1.0" encoding="UTF-8"?>
<!DOCTYPE svg PUBLIC "-//W3C//DTD SVG 1.1//EN" "http://www.w3.org/Graphics/SVG/1.1/DTD/svg11.dtd">
<!-- Creator: CorelDRAW X7 -->
<svg xmlns="http://www.w3.org/2000/svg" xml:space="preserve" width="34.9791mm" height="34.9792mm" version="1.1" style="shape-rendering:geometricPrecision; text-rendering:geometricPrecision; image-rendering:optimizeQuality; fill-rule:evenodd; clip-rule:evenodd"
viewBox="0 0 212125 212126"
 xmlns:xlink="http://www.w3.org/1999/xlink">
 <defs>
  <style type="text/css">
   <![CDATA[
    .fil1 {fill:#FEFEFE}
    .fil0 {fill:#254471}
   ]]>
  </style>
 </defs>
 <g id="Layer_x0020_1">
  <metadata id="CorelCorpID_0Corel-Layer"/>
  <polygon class="fil0" points="31065,31065 74997,31065 106063,0 137128,31065 181061,31065 181061,74998 212125,106063 181061,137128 181061,181061 137127,181061 106063,212126 74998,181061 31065,181061 31065,137128 0,106063 31065,74998 "/>
  <path class="fil1" d="M98876 169729c1792,-2702 -2217,-24389 -2824,-29185 -861,-6788 -1425,-7383 -5249,-11154l-17324 -15853c-4201,-3175 -9358,1116 -5401,6924 2443,3584 4665,6413 7388,9465 3006,3368 8332,7714 5661,10241 -3327,3146 -12260,-9341 -14246,-11878 -6789,-8673 -7863,-11352 -3051,-18796 -562,-2476 -5223,-10487 -6746,-13265 -3277,-5977 -10646,-4583 -9661,3484 1451,11872 3057,24096 4784,36086 1440,9993 9738,12635 19455,21432 5574,5047 -1505,13086 7360,13106 3503,7 17709,522 19854,-607zm41439 -65316c3102,-6176 -3376,-24195 -8944,-21347 -3380,1728 -419,11159 493,13443 1373,3440 3727,8852 8451,7904zm-17126 -5857c-7078,-3082 -17856,15233 -13999,18557 3850,3317 16393,-10965 13999,-18557zm-50911 -42744c-3693,6630 4959,23785 10109,20938 3156,-1743 -229,-10872 -1139,-12829 -1509,-3242 -4198,-8581 -8970,-8109zm8875 27138c-4584,-599 -6858,4400 -8316,8075 -1031,2599 -3568,11461 -633,13246 5093,3099 13009,-14656 8949,-21321zm41414 8229c4481,-6056 -588,-24565 -5987,-22341 -3825,1576 -2208,13485 911,19093 1234,2217 1696,3547 5076,3248zm-21535 -49126c-7488,-2858 -22585,10267 -18643,14044 3472,3326 21344,-7007 18643,-14044zm797 22008c2,3751 428,6057 2750,7512 6420,-535 8907,-17617 4665,-22813 -5977,-246 -7419,9617 -7415,15301zm44502 4987c-5336,3658 -3565,25836 2619,22082 5056,-3069 3863,-26527 -2619,-22082zm-83156 65c-5051,4048 -3530,25404 2609,22043 5453,-2985 3771,-27157 -2609,-22043zm32771 43431c5287,-5456 -111,-24326 -5492,-22496 -3320,1130 -2288,9714 -1482,13137 952,4037 2561,9270 6974,9359zm9729 -34190c-5407,3989 -4578,26473 2051,22158 5220,-3398 3966,-26598 -2051,-22158zm20099 -13113c2528,-4366 2278,-7991 1086,-13136 -3232,-13947 -11810,-12606 -8379,3623 892,4218 2555,9421 7293,9513zm12703 -9233c-7020,2582 -13350,23599 -5768,20894 6716,-2396 13732,-23822 5768,-20894zm-48140 6937c-5716,3275 326,24768 5695,22191 5167,-2481 -60,-25419 -5695,-22191zm58098 46548c5072,7642 3504,10024 -2893,18502 -2001,2651 -4166,5435 -6238,7542 -2353,2393 -4128,6177 -8211,4624 -1675,-3888 410,-4111 5679,-10220 3032,-3517 5110,-6062 7596,-9785 3716,-5566 -1461,-9746 -5597,-6588l-17863 16334c-4278,4185 -3995,5706 -4937,12529 -723,5237 -1359,10116 -2055,15313 -2033,15167 -5267,12563 19250,12561 3961,0 4206,-151 4726,-4023 1213,-9048 -562,-6610 10857,-15675 10095,-8013 10338,-6848 12423,-23318 620,-4900 4494,-29105 3438,-31834 -713,-1846 -2957,-3286 -5774,-2679 -3798,818 -10313,16278 -10401,16717z"/>
 </g>
</svg>
