<?xml version="1.0" encoding="UTF-8"?>
<!DOCTYPE svg PUBLIC "-//W3C//DTD SVG 1.1//EN" "http://www.w3.org/Graphics/SVG/1.1/DTD/svg11.dtd">
<!-- Creator: CorelDRAW X7 -->
<svg xmlns="http://www.w3.org/2000/svg" xml:space="preserve" width="34.9791mm" height="34.9792mm" version="1.1" style="shape-rendering:geometricPrecision; text-rendering:geometricPrecision; image-rendering:optimizeQuality; fill-rule:evenodd; clip-rule:evenodd"
viewBox="0 0 743 743"
 xmlns:xlink="http://www.w3.org/1999/xlink">
 <defs>
  <style type="text/css">
   <![CDATA[
    .fil1 {fill:#FEFEFE}
    .fil0 {fill:#0C7E46}
   ]]>
  </style>
 </defs>
 <g id="Layer_x0020_1">
  <metadata id="CorelCorpID_0Corel-Layer"/>
  <g id="_465750512">
   <polygon class="fil0" points="109,109 263,109 372,0 481,109 635,109 635,263 743,372 635,481 635,635 481,635 372,743 263,635 109,635 109,481 0,372 109,263 "/>
   <path class="fil1" d="M366 185c0,19 1,18 -6,31 -10,17 -20,29 -32,43 -48,55 -106,64 -147,116 -49,62 -22,106 -25,112 -2,4 -30,36 -33,44 49,-1 98,2 142,14 21,5 40,11 57,20 9,5 17,9 24,15 13,9 15,15 21,19 12,-10 9,-15 43,-34 55,-29 138,-34 201,-34 -4,-9 -27,-34 -33,-44 -5,-7 12,-23 0,-62 -16,-51 -50,-76 -86,-101 -24,-16 -38,-19 -67,-46 -18,-17 -38,-39 -51,-62 -6,-10 -8,-12 -6,-30 14,-1 25,-5 30,-13 -20,9 -38,2 -45,-15 -6,-14 -1,-29 11,-37 4,-3 9,-4 12,-6 -47,-6 -54,64 -10,70zm-207 297l1 -1c1,-1 2,-1 2,-2l9 -10c3,-5 6,-10 10,-14 -5,14 -27,44 -32,55 45,2 85,6 125,17 19,5 35,11 51,19 27,15 21,14 42,29 3,-2 15,-15 41,-29 53,-26 116,-33 176,-36 -5,-13 -28,-45 -31,-54 7,6 14,20 21,26 3,-27 -20,-63 -32,-78 -38,-46 -77,-51 -126,-97 -14,-13 -39,-43 -48,-64 -4,3 -17,26 -23,33 -24,34 -53,55 -90,77 -27,15 -42,27 -63,49 -18,19 -33,51 -33,80z"/>
   <path class="fil1" d="M175 497l57 4c35,4 67,11 98,25 20,8 23,13 37,24 10,-6 10,-12 36,-24 15,-7 29,-11 46,-16 35,-9 71,-10 109,-13l-71 -107c-60,-1 -99,19 -115,74 -2,4 -4,17 -5,21 -5,-13 -2,-18 -11,-39 -16,-35 -51,-56 -95,-56l-12 0c-6,1 -65,92 -74,107z"/>
   <path class="fil1" d="M368 141c3,6 3,4 7,8l-2 10c12,-3 5,-7 18,0l-1 -11 7 -6c-15,-3 -7,-3 -15,-11 -5,11 -2,8 -14,10z"/>
  </g>
 </g>
</svg>
