<?xml version="1.0" encoding="UTF-8"?>
<!DOCTYPE svg PUBLIC "-//W3C//DTD SVG 1.1//EN" "http://www.w3.org/Graphics/SVG/1.1/DTD/svg11.dtd">
<!-- Creator: CorelDRAW X7 -->
<svg xmlns="http://www.w3.org/2000/svg" xml:space="preserve" width="34.9791mm" height="34.9792mm" version="1.1" style="shape-rendering:geometricPrecision; text-rendering:geometricPrecision; image-rendering:optimizeQuality; fill-rule:evenodd; clip-rule:evenodd"
viewBox="0 0 75184 75184"
 xmlns:xlink="http://www.w3.org/1999/xlink">
 <defs>
  <style type="text/css">
   <![CDATA[
    .fil1 {fill:#FEFEFE}
    .fil0 {fill:#914E0B}
   ]]>
  </style>
 </defs>
 <g id="Layer_x0020_1">
  <metadata id="CorelCorpID_0Corel-Layer"/>
  <polygon class="fil0" points="11010,11010 26581,11010 37592,0 48602,11010 64173,11010 64173,26582 75184,37592 64173,48602 64173,64173 48602,64173 37592,75184 26581,64173 11010,64173 11010,48602 0,37592 11010,26582 "/>
  <path class="fil1" d="M36647 20030l-55 4732c-1410,561 -2408,576 -3976,1252 -1493,645 -2116,1236 -3363,1790 -5225,-6066 -2663,-1152 -3586,-6172 -677,-3684 -4691,-3669 -6265,-1390 -1815,2626 -176,5280 2950,5450 3091,168 4318,1738 5441,3799 -3245,5585 -1462,3113 -2549,5523 -586,1300 26,1510 -2860,1510 -5811,0 -2345,-2266 -6324,-2406 -2365,-83 -4312,1898 -3485,4584 677,2198 3415,3211 5436,1678 1982,-1504 -800,-1836 6765,-1668 1133,3417 1617,4400 2930,7072 -769,1090 -2503,3186 -3603,3624 -1235,492 -891,-131 -2608,194 -2908,550 -3768,3241 -958,6725l4214 -257c2612,-6171 -1637,-2534 4340,-8662 3018,1288 3269,2020 7403,2953l-55 5410c-4587,3454 -2414,7595 3030,6893 899,-1316 2019,-1833 1551,-3998 -961,-4439 -2633,1366 -2329,-8154 1428,-572 2312,-522 3943,-1248 1426,-636 2111,-1245 3375,-1770 806,907 1435,1360 2336,2293 1985,2057 740,1033 1251,3855 668,3691 4710,3660 6264,1399 1771,-2579 131,-5272 -2956,-5446 -3068,-173 -4343,-1754 -5432,-3811 607,-1106 1267,-1779 1797,-3089l883 -2772c508,-1208 213,-588 614,-1173 1986,-2 3863,-383 5322,596 1871,1255 753,2166 4914,1679 2472,-1218 2733,-6523 -1351,-6841 -5258,-411 1213,2517 -9201,2408 -1203,-3865 -1524,-4161 -2897,-7101 4334,-6140 4947,-2243 7746,-4399 2687,-2070 1519,-7371 -4785,-5747 -2970,5907 2381,1099 -4341,8549 -2840,-1305 -3478,-2064 -7383,-2978l49 -5413c4874,-3798 1202,-7110 -1211,-7061 -1904,38 -3418,1635 -3468,3403 -70,2509 1474,2376 2487,4185zm9 9317c-5059,1612 -2712,8607 2178,7148 4361,-1302 2674,-8694 -2178,-7148zm8794 13405c-1852,-8117 -14608,-6067 -15420,-932 -377,2382 4099,4831 7094,4978 4596,225 5974,-2010 8326,-4046zm-9556 -15381c-15006,3341 -9018,23750 4274,20465 5050,-1248 9256,-6095 7648,-12822 -1089,-4555 -5931,-8978 -11922,-7643z"/>
 </g>
</svg>
