<?xml version="1.0" encoding="UTF-8"?>
<!DOCTYPE svg PUBLIC "-//W3C//DTD SVG 1.1//EN" "http://www.w3.org/Graphics/SVG/1.1/DTD/svg11.dtd">
<!-- Creator: CorelDRAW X7 -->
<svg xmlns="http://www.w3.org/2000/svg" xml:space="preserve" width="34.9791mm" height="34.9792mm" version="1.1" style="shape-rendering:geometricPrecision; text-rendering:geometricPrecision; image-rendering:optimizeQuality; fill-rule:evenodd; clip-rule:evenodd"
viewBox="0 0 743 743"
 xmlns:xlink="http://www.w3.org/1999/xlink">
 <defs>
  <style type="text/css">
   <![CDATA[
    .fil1 {fill:#FEFEFE}
    .fil0 {fill:#86BC10}
   ]]>
  </style>
 </defs>
 <g id="Layer_x0020_1">
  <metadata id="CorelCorpID_0Corel-Layer"/>
  <polygon class="fil0" points="109,109 263,109 372,0 481,109 635,109 635,263 743,372 635,481 635,635 481,635 372,743 263,635 109,635 109,481 0,372 109,263 "/>
  <path class="fil1" d="M585 375c-12,2 -18,6 -32,7 -56,5 -100,11 -148,43 -13,8 -22,16 -29,29l-9 12c-15,-33 -52,-45 -89,-63 -18,-8 -38,-13 -59,-17 -13,-2 -23,-3 -35,-4 -15,-1 -21,-5 -34,-7 0,7 1,12 3,18 3,14 4,10 39,24l176 73c5,0 103,-42 117,-48l86 -36c10,-4 13,-8 14,-31zm-275 -67c-6,27 16,27 23,17 8,-14 -6,-27 -23,-17zm115 0c-17,-10 -31,3 -22,17 6,10 29,9 22,-17zm-59 -29c-19,5 -13,35 5,30 16,-3 10,-34 -5,-30zm-33 56c-28,-4 -48,9 -49,35 56,-20 68,3 84,3 16,0 23,-22 84,-3 -2,-26 -21,-39 -49,-35 -9,-9 -16,-21 -35,-21 -20,0 -27,12 -35,21zm41 223l63 34c31,15 35,25 51,17 40,-19 -16,-16 -12,-43 1,-13 22,-24 38,-18 9,3 36,16 44,14 5,-2 15,-9 15,-14 -1,-8 -13,-10 -20,-12 -15,-5 -30,-10 -45,-15 -26,-9 -20,-6 -45,3l-89 34zm-141 40c3,6 19,17 32,11l64 -34c11,-5 21,-10 32,-17l-87 -34c-24,-8 -21,-12 -45,-4 -8,3 -63,19 -66,25 -3,7 8,14 14,16 8,4 33,-9 43,-13 15,-6 37,4 39,16 6,24 -21,19 -26,34zm346 -175c-21,3 -202,88 -211,88 -9,0 -194,-86 -211,-88 0,12 5,22 10,30 9,14 65,34 82,41 15,6 110,46 119,46 11,0 149,-58 176,-70 19,-9 35,-21 35,-47zm-351 -55l25 0c1,-94 -12,-139 88,-193 27,-15 22,-16 48,-2 105,56 94,90 94,195l24 0 0 -78c0,-51 -31,-91 -58,-110 -16,-11 -34,-22 -52,-33 -33,-20 -23,-20 -55,-2 -33,20 -72,42 -93,75 -27,42 -21,92 -21,148z"/>
 </g>
</svg>
