<?xml version="1.0" encoding="UTF-8"?>
<!DOCTYPE svg PUBLIC "-//W3C//DTD SVG 1.1//EN" "http://www.w3.org/Graphics/SVG/1.1/DTD/svg11.dtd">
<!-- Creator: CorelDRAW X7 -->
<svg xmlns="http://www.w3.org/2000/svg" xml:space="preserve" width="34.9791mm" height="34.9792mm" version="1.1" style="shape-rendering:geometricPrecision; text-rendering:geometricPrecision; image-rendering:optimizeQuality; fill-rule:evenodd; clip-rule:evenodd"
viewBox="0 0 212125 212126"
 xmlns:xlink="http://www.w3.org/1999/xlink">
 <defs>
  <style type="text/css">
   <![CDATA[
    .fil1 {fill:#FEFEFE}
    .fil0 {fill:#999999}
   ]]>
  </style>
 </defs>
 <g id="Layer_x0020_1">
  <metadata id="CorelCorpID_0Corel-Layer"/>
  <polygon class="fil0" points="31065,31065 74997,31065 106063,0 137128,31065 181061,31065 181061,74998 212125,106063 181061,137128 181061,181061 137127,181061 106063,212126 74998,181061 31065,181061 31065,137128 0,106063 31065,74998 "/>
  <path class="fil1" d="M145658 156935c2451,-1651 5819,-4999 7889,-7268 3178,-3483 -1327,-8530 -5376,-4758 -1920,1789 -14612,12883 -17554,12681 -419,-1646 1405,-2128 2775,-3029 5896,-3883 11789,-8503 16439,-13737 1852,-2086 4577,-5641 1102,-7767 -3009,-1840 -5673,2200 -7447,3817 -5402,4925 -11015,9083 -17302,12898 -1475,894 -2513,2246 -3453,687 542,-1063 6946,-4811 8206,-5613 2627,-1671 5507,-4088 7800,-6065 2373,-2048 9208,-7722 9759,-11061 452,-2733 -2637,-6822 -7358,-1907 -1092,1138 -2454,2393 -3524,3393 -4034,3775 -10629,8964 -15653,12124 -1515,952 -2662,1637 -4289,2636 -2735,1678 -3636,2528 -4314,1064 426,-830 6969,-4602 8009,-5224 2984,-1785 5195,-3569 7672,-5583 2150,-1747 4982,-3851 7001,-6272 3004,-3601 -920,-7941 -4832,-5770l-7297 5991c-4174,3344 -11122,7965 -15984,10539 -1543,818 -2967,1560 -4413,2231 -1718,798 -3769,2235 -4794,1592 3915,-1584 20905,-13301 11612,-17419 -3334,-1478 -5993,1831 -7874,3330 -4545,3623 -8273,5914 -14049,8855 -5738,2921 -11647,4381 -19391,4113 -4769,-394 -8149,-1172 -12090,-2771 -5626,-2284 -5750,-3355 -9223,-5583 335,2094 5040,9275 6696,11484 3087,4121 5640,6758 8954,9727 15104,13530 36446,19268 56968,14658 10558,-2372 17790,-6549 25335,-11993zm-65625 -86290c-10989,2307 -7698,19331 3620,16957 4148,-870 7507,-5328 6522,-10224 -836,-4161 -4972,-7818 -10142,-6733zm47932 274c-2464,905 -3707,1565 -4898,3637 -4031,7013 2337,15176 9829,12854 11084,-3434 5287,-20241 -4931,-16491zm-23449 -8086c-13696,2052 -10265,22452 2990,20264 12898,-2129 9927,-22201 -2990,-20264zm20561 27837c-250,952 1401,2093 1816,5810 644,5779 -629,19052 197,25142 1758,-2336 7457,-5379 11925,114 684,841 -134,274 841,841 2748,-1227 -597,-527 4925,-2148 -88,-4143 -21,-8348 -21,-12497 0,-3874 620,-8524 -1193,-11559 -2927,-4892 -11393,-8200 -18490,-5703zm25969 37770l-1039 1783c1999,1176 3925,1689 4532,4338 768,3352 -1165,4944 -2105,6850 968,552 1897,860 2655,1652 907,948 906,1409 1657,2554 253,-192 173,-107 468,-419 4597,-4851 9694,-16843 11327,-23382 5095,-20394 -6,-40084 -13761,-54448 -4001,-4179 -14438,-12216 -22228,-13902 -1622,-1331 -11258,-2754 -14713,-2935 -10879,-570 -19942,1724 -29224,6442 -3210,1632 -8869,5464 -10575,7529 2118,-778 4969,-3682 13817,-6360 5449,-1650 12076,-2463 18297,-1901 21557,1947 39162,16831 44444,37562 2191,8595 2004,18373 -675,26995 -829,2668 -2224,5338 -2877,7642zm-83673 9114c-1732,-924 -4823,-6971 -6141,-8994 -687,-2148 -2016,-4455 -3205,-8466 -6278,-21168 2934,-46444 19196,-59115 15748,-12270 34643,-17144 54380,-11139 3077,937 5743,2009 8476,3301 1317,622 2375,1149 3789,1926 1621,890 2410,1720 3954,2300 -525,-971 -1676,-1738 -2627,-2433 -1219,-891 -1789,-1345 -3000,-2122 -16627,-10649 -35430,-14215 -54702,-8428l-1959 923c-2588,-83 -11753,5039 -13760,6299 -12219,7669 -21860,19486 -26734,33902 -3286,9717 -4983,25266 -1348,35323 1933,5347 4791,8630 8746,11489 3294,2382 9582,5445 14930,5463 6362,1420 12562,-827 17834,-2411l79 -34981c-6,-5257 269,-5621 2079,-9642 -4456,-1649 -10698,-543 -14224,1437 -4579,2572 -5768,4848 -5760,11222 15,11366 99,22786 -3,34146zm21445 -3960c2116,-541 5874,-3127 7576,-4291 2931,-2003 3975,-3134 6540,-5203 5399,-4354 13576,-1959 13065,5902 1371,-380 3757,-2388 4940,-3284 2917,-2210 2582,-1360 2570,-5816 -14,-5630 0,-11261 0,-16891 0,-6249 460,-9846 -3368,-13457 -6671,-6293 -18406,-6503 -25537,-1933 -3745,2400 -5827,5049 -5822,11168 8,11120 -334,22751 36,33805z"/>
 </g>
</svg>
