<?xml version="1.0" encoding="UTF-8"?>
<!DOCTYPE svg PUBLIC "-//W3C//DTD SVG 1.1//EN" "http://www.w3.org/Graphics/SVG/1.1/DTD/svg11.dtd">
<!-- Creator: CorelDRAW X7 -->
<svg xmlns="http://www.w3.org/2000/svg" xml:space="preserve" width="34.9791mm" height="34.9792mm" version="1.1" style="shape-rendering:geometricPrecision; text-rendering:geometricPrecision; image-rendering:optimizeQuality; fill-rule:evenodd; clip-rule:evenodd"
viewBox="0 0 212125 212126"
 xmlns:xlink="http://www.w3.org/1999/xlink">
 <defs>
  <style type="text/css">
   <![CDATA[
    .fil1 {fill:#FEFEFE}
    .fil0 {fill:#4B8D7F}
   ]]>
  </style>
 </defs>
 <g id="Layer_x0020_1">
  <metadata id="CorelCorpID_0Corel-Layer"/>
  <polygon class="fil0" points="31065,31065 74997,31065 106063,0 137128,31065 181061,31065 181061,74998 212125,106063 181061,137128 181061,181061 137127,181061 106063,212126 74998,181061 31065,181061 31065,137128 0,106063 31065,74998 "/>
  <path class="fil1" d="M37655 134169c2285,1191 5300,3549 7706,5163 18201,12212 42383,26942 65302,26438 22862,-502 40828,-15582 54450,-30253 2632,-2835 7551,-7707 9356,-10722 -5183,-8791 -22832,4996 -29347,9634 -15858,11289 -25084,17844 -43863,10883 -3436,-1274 -10791,-2994 -9724,-5225 1174,-2456 12041,3918 19881,5022 9843,1385 17392,-3743 24994,-8270 1374,-818 3480,-1419 3359,-3097 -172,-2381 -6252,-3913 -8801,-4416 -4038,-798 -8320,-661 -12244,155 -1821,378 -3605,932 -5194,1543 -2471,952 -2410,402 -4666,-713 -6696,-3309 -11531,-5184 -17517,-9180 -18375,-12266 -32803,-8101 -47145,5745 -1481,1430 -5818,5502 -6547,7293zm104496 -1052l16049 -10061c1376,-929 2279,-994 2757,-2461 505,-1549 1895,-7887 693,-9014 -4175,-3912 -18141,16899 -19499,21536zm-42604 -30158c1984,814 3233,2741 5196,3641 -412,-6861 -5916,-11207 -12462,-12323 -5865,-1001 -8982,-2074 -13790,-5118 -1576,-998 -2851,-1306 -3048,-3269 795,-3662 6442,2443 12545,4144 4086,1139 7787,855 11603,3224 1091,677 1965,1778 3074,1722 892,-4491 -977,-9547 -3024,-12521 -7857,-11413 -20954,-5862 -30385,-9253 -2637,-948 -3406,-2165 -5434,-3053 -617,7190 -1380,10572 725,17759 3919,13380 15080,23368 28804,18830 3422,-1132 3963,-2382 6196,-3783zm10375 -7220c1189,-929 2936,-3406 3873,-4501 1211,-1414 7079,-6783 10935,-11282 821,-957 1021,-1426 2012,-2436 1849,4752 -139,5481 -4875,10311 -2646,2699 -5697,5463 -8086,8596 -2484,3259 -4407,6075 -5711,10955 -1747,6538 -690,9038 1017,14591 910,-1172 2308,-7835 3453,-10863 1396,-3695 2773,-6583 4507,-9939 7208,316 11360,1358 19433,-3904 18068,-11777 14808,-38912 1601,-50924 -1476,1395 -1146,5571 -10493,11277 -8843,5399 -20164,9744 -22263,21382 -606,3364 -653,6793 444,9925 655,1869 3017,5843 4153,6812z"/>
 </g>
</svg>
