<?xml version="1.0" encoding="UTF-8"?>
<!DOCTYPE svg PUBLIC "-//W3C//DTD SVG 1.1//EN" "http://www.w3.org/Graphics/SVG/1.1/DTD/svg11.dtd">
<!-- Creator: CorelDRAW X7 -->
<svg xmlns="http://www.w3.org/2000/svg" xml:space="preserve" width="34.9791mm" height="34.9792mm" version="1.1" style="shape-rendering:geometricPrecision; text-rendering:geometricPrecision; image-rendering:optimizeQuality; fill-rule:evenodd; clip-rule:evenodd"
viewBox="0 0 743 743"
 xmlns:xlink="http://www.w3.org/1999/xlink">
 <defs>
  <style type="text/css">
   <![CDATA[
    .fil1 {fill:#FEFEFE}
    .fil0 {fill:#E49D10}
   ]]>
  </style>
 </defs>
 <g id="Layer_x0020_1">
  <metadata id="CorelCorpID_0Corel-Layer"/>
  <g id="_467780200">
   <polygon class="fil0" points="109,109 263,109 372,0 481,109 635,109 635,263 743,372 635,481 635,635 481,635 372,743 263,635 109,635 109,481 0,372 109,263 "/>
   <g>
    <path class="fil1" d="M374 569c0,-1 0,-1 1,-1l23 -25c16,-16 25,-24 48,-37 30,-17 69,-30 109,-27 -8,-28 -41,-99 -53,-135 -47,-1 -94,20 -123,52 -9,11 -6,14 -6,39 0,42 -1,95 1,134z"/>
    <path class="fil1" d="M188 479c40,-2 82,10 111,28 59,38 56,51 69,62 2,-8 -3,-167 -5,-171 -5,-13 -35,-31 -49,-38 -22,-11 -46,-15 -73,-16 -6,20 -44,104 -53,135z"/>
    <path class="fil1" d="M392 303c0,13 -1,26 -4,39 -2,13 -8,24 -10,36 50,-14 101,-83 103,-139 -3,4 -6,9 -9,13 -5,8 -17,18 -24,23 -5,4 -10,7 -16,8 -14,-30 -63,-106 -94,-117 11,10 32,44 38,57 10,25 16,50 16,80z"/>
    <path class="fil1" d="M341 273c-22,-7 -43,-14 -67,-18 -13,-3 -63,-13 -76,-3 47,7 73,20 103,43 5,4 5,2 9,8 8,9 13,10 26,30 10,15 16,30 24,48 14,-17 20,-69 17,-94 -3,-27 -15,-66 -29,-82 4,34 0,38 -7,68z"/>
    <path class="fil1" d="M127 515c72,-5 127,8 192,39 14,7 32,19 44,23 -4,-10 -7,-13 -14,-21 -5,-7 -11,-10 -19,-17 -13,-11 -29,-17 -46,-25 -29,-12 -83,-24 -118,-26 3,-14 20,-45 28,-61l27 -60c-6,4 -22,29 -26,35 -9,12 -16,23 -24,36 -8,13 -40,65 -44,77z"/>
    <path class="fil1" d="M577 488c-55,5 -174,30 -197,90 39,-19 51,-31 103,-47 37,-11 93,-23 133,-16 -5,-13 -14,-28 -21,-40 -12,-21 -60,-97 -74,-111 6,16 57,117 56,124z"/>
    <path class="fil1" d="M436 214c-10,4 -18,14 -12,29 3,10 14,18 28,13 26,-11 11,-54 -16,-42z"/>
    <path class="fil1" d="M313 207c-29,7 -21,51 8,45 27,-6 20,-51 -8,-45z"/>
    <path class="fil1" d="M286 199l-7 51 16 -6c-1,-13 -4,-22 4,-32 9,-10 17,-6 30,-5 2,-7 4,-14 5,-22 -7,1 -43,11 -48,14z"/>
   </g>
  </g>
 </g>
</svg>
